<svg width="1355" height="740" viewBox="0 0 1355 740" fill="none" xmlns="http://www.w3.org/2000/svg">
<g opacity="0.3" clip-path="url(#clip0_2_10567)">
<path d="M134.809 532.492C183.681 532.492 223.299 492.776 223.299 443.783C223.299 394.791 183.681 355.075 134.809 355.075C85.9365 355.075 46.3179 394.791 46.3179 443.783C46.3179 492.776 85.9365 532.492 134.809 532.492Z" fill="url(#paint0_radial_2_10567)"/>
<path d="M902.156 623.324C902.156 617.604 897.528 612.965 891.822 612.965C886.116 612.965 881.469 617.604 881.469 623.324C881.469 629.045 886.097 633.703 891.822 633.703C897.528 633.703 902.156 629.045 902.156 623.324Z" fill="url(#paint1_radial_2_10567)"/>
<path d="M1355 19.2846C1355 13.5644 1350.37 8.90637 1344.67 8.90637C1338.96 8.90637 1334.31 13.5458 1334.31 19.2846C1334.31 25.0047 1338.94 29.6627 1344.67 29.6627C1350.37 29.6441 1355 25.0047 1355 19.2846Z" fill="url(#paint2_radial_2_10567)"/>
<path d="M234.154 63.8342C236.72 63.8342 238.801 61.7487 238.801 59.1761C238.801 56.6036 236.72 54.5181 234.154 54.5181C231.588 54.5181 229.507 56.6036 229.507 59.1761C229.507 61.7487 231.588 63.8342 234.154 63.8342Z" fill="url(#paint3_radial_2_10567)"/>
<path d="M644.899 428.095C647.465 428.095 649.546 426.009 649.546 423.437C649.546 420.864 647.465 418.779 644.899 418.779C642.333 418.779 640.252 420.864 640.252 423.437C640.252 426.009 642.333 428.095 644.899 428.095Z" fill="url(#paint4_radial_2_10567)"/>
<path d="M1203.13 74.3613C1205.7 74.3613 1207.78 72.2758 1207.78 69.7032C1207.78 67.1307 1205.7 65.0452 1203.13 65.0452C1200.56 65.0452 1198.48 67.1307 1198.48 69.7032C1198.48 72.2758 1200.56 74.3613 1203.13 74.3613Z" fill="url(#paint5_radial_2_10567)"/>
<path d="M946.374 299.85C946.374 294.129 941.746 289.471 936.021 289.471C930.315 289.471 925.668 294.111 925.668 299.85C925.668 305.57 930.296 310.228 936.021 310.228C941.727 310.209 946.374 305.57 946.374 299.85Z" fill="url(#paint6_radial_2_10567)"/>
<path opacity="0.2" d="M470.743 227.202C470.743 221.482 466.114 216.824 460.39 216.824C454.684 216.824 450.037 221.464 450.037 227.202C450.037 232.923 454.665 237.581 460.39 237.581C466.114 237.562 470.743 232.923 470.743 227.202Z" fill="url(#paint7_radial_2_10567)"/>
<path opacity="0.2" d="M82.6732 227.202C82.6732 221.482 78.0452 216.824 72.3205 216.824C66.6144 216.824 61.9678 221.464 61.9678 227.202C61.9678 232.923 66.5958 237.581 72.3205 237.581C78.0266 237.562 82.6732 232.923 82.6732 227.202Z" fill="url(#paint8_radial_2_10567)"/>
<path opacity="0.2" d="M1015.48 519.114C1015.48 513.394 1010.85 508.754 1005.13 508.754C999.42 508.754 994.792 513.394 994.792 519.114C994.792 524.834 999.42 529.492 1005.13 529.492C1010.85 529.473 1015.48 524.834 1015.48 519.114Z" fill="url(#paint9_radial_2_10567)"/>
<path opacity="0.2" d="M671.088 602.587C671.088 596.867 666.459 592.227 660.753 592.227C655.047 592.227 650.401 596.867 650.401 602.587C650.401 608.307 655.029 612.965 660.753 612.965C666.459 612.965 671.088 608.307 671.088 602.587Z" fill="url(#paint10_radial_2_10567)"/>
<path opacity="0.2" d="M172.205 329.307C172.205 323.587 167.577 318.929 161.852 318.929C156.146 318.929 151.499 323.568 151.499 329.307C151.499 335.027 156.127 339.685 161.852 339.685C167.577 339.666 172.205 335.027 172.205 329.307Z" fill="url(#paint11_radial_2_10567)"/>
<path opacity="0.2" d="M1325.34 266.218C1325.34 260.498 1320.71 255.84 1314.98 255.84C1309.26 255.84 1304.65 260.48 1304.65 266.218C1304.65 271.938 1309.28 276.596 1314.98 276.596C1320.69 276.596 1325.34 271.957 1325.34 266.218Z" fill="url(#paint12_radial_2_10567)"/>
<path d="M446.989 648.888C446.989 643.168 442.361 638.529 436.655 638.529C430.949 638.529 426.302 643.168 426.302 648.888C426.302 654.608 430.93 659.267 436.655 659.267C442.361 659.267 446.989 654.627 446.989 648.888Z" fill="url(#paint13_radial_2_10567)"/>
<path d="M1265.54 403.371C1265.54 397.65 1260.91 393.011 1255.19 393.011C1249.48 393.011 1244.86 397.65 1244.86 403.371C1244.86 409.091 1249.48 413.73 1255.19 413.73C1260.91 413.73 1265.54 409.091 1265.54 403.371Z" fill="url(#paint14_radial_2_10567)"/>
<path d="M1242.64 285.54C1242.64 279.82 1238.02 275.162 1232.29 275.162C1226.59 275.162 1221.96 279.801 1221.96 285.54C1221.96 291.26 1226.59 295.918 1232.29 295.918C1238.02 295.899 1242.64 291.26 1242.64 285.54Z" fill="url(#paint15_radial_2_10567)"/>
<path d="M1104.14 108.887C1106.7 108.887 1108.78 106.802 1108.78 104.229C1108.78 101.656 1106.7 99.5709 1104.14 99.5709C1101.57 99.5709 1099.49 101.656 1099.49 104.229C1099.49 106.802 1101.57 108.887 1104.14 108.887Z" fill="url(#paint16_radial_2_10567)"/>
<path d="M310.861 290.198C313.427 290.198 315.507 288.112 315.507 285.54C315.507 282.967 313.427 280.882 310.861 280.882C308.294 280.882 306.214 282.967 306.214 285.54C306.214 288.112 308.294 290.198 310.861 290.198Z" fill="url(#paint17_radial_2_10567)"/>
<path d="M836.36 364.206C836.36 361.634 834.278 359.548 831.713 359.548C829.148 359.548 827.066 361.634 827.066 364.206C827.066 366.777 829.148 368.864 831.713 368.864C834.297 368.864 836.36 366.777 836.36 364.206Z" fill="url(#paint18_radial_2_10567)"/>
<path d="M76.9672 123.215C79.5335 123.215 81.6139 121.13 81.6139 118.557C81.6139 115.985 79.5335 113.899 76.9672 113.899C74.4009 113.899 72.3206 115.985 72.3206 118.557C72.3206 121.13 74.4009 123.215 76.9672 123.215Z" fill="url(#paint19_radial_2_10567)"/>
<path d="M1039.66 357.498C1042.23 357.498 1044.31 355.412 1044.31 352.84C1044.31 350.267 1042.23 348.182 1039.66 348.182C1037.09 348.182 1035.01 350.267 1035.01 352.84C1035.01 355.412 1037.09 357.498 1039.66 357.498Z" fill="url(#paint20_radial_2_10567)"/>
<path d="M1006.11 403.371C1008.68 403.371 1010.76 401.285 1010.76 398.713C1010.76 396.14 1008.68 394.055 1006.11 394.055C1003.54 394.055 1001.46 396.14 1001.46 398.713C1001.46 401.285 1003.54 403.371 1006.11 403.371Z" fill="url(#paint21_radial_2_10567)"/>
<path d="M1149.66 495.507C1149.66 489.787 1145.03 485.147 1139.3 485.147C1133.6 485.147 1128.97 489.787 1128.97 495.507C1128.97 501.227 1133.6 505.885 1139.3 505.885C1145.03 505.885 1149.66 501.246 1149.66 495.507Z" fill="url(#paint22_radial_2_10567)"/>
<path opacity="0.2" d="M977.711 622.97C977.711 617.25 973.082 612.592 967.358 612.592C961.652 612.592 957.024 617.231 957.024 622.97C957.024 628.69 961.652 633.33 967.358 633.33C973.064 633.33 977.711 628.69 977.711 622.97Z" fill="url(#paint23_radial_2_10567)"/>
<path d="M1116.37 583.861C1118.93 583.861 1121.01 581.776 1121.01 579.203C1121.01 576.63 1118.93 574.545 1116.37 574.545C1113.8 574.545 1111.72 576.63 1111.72 579.203C1111.72 581.776 1113.8 583.861 1116.37 583.861Z" fill="url(#paint24_radial_2_10567)"/>
<path d="M1035.01 564.54C1037.58 564.54 1039.66 562.455 1039.66 559.882C1039.66 557.309 1037.58 555.224 1035.01 555.224C1032.45 555.224 1030.37 557.309 1030.37 559.882C1030.37 562.455 1032.45 564.54 1035.01 564.54Z" fill="url(#paint25_radial_2_10567)"/>
<path d="M467.416 289.416C469.982 289.416 472.062 287.33 472.062 284.757C472.062 282.185 469.982 280.099 467.416 280.099C464.849 280.099 462.769 282.185 462.769 284.757C462.769 287.33 464.849 289.416 467.416 289.416Z" fill="url(#paint26_radial_2_10567)"/>
<path d="M433.867 335.288C436.433 335.288 438.514 333.203 438.514 330.63C438.514 328.057 436.433 325.972 433.867 325.972C431.301 325.972 429.22 328.057 429.22 330.63C429.22 333.203 431.301 335.288 433.867 335.288Z" fill="url(#paint27_radial_2_10567)"/>
<path opacity="0.2" d="M558.007 10.3778C558.007 4.65771 553.379 -0.000366211 547.654 -0.000366211C541.948 -0.000366211 537.301 4.63907 537.301 10.3778C537.301 16.0979 541.929 20.756 547.654 20.756C553.379 20.7374 558.007 16.0979 558.007 10.3778Z" fill="url(#paint28_radial_2_10567)"/>
<path d="M791.083 25.3956C793.649 25.3956 795.729 23.3101 795.729 20.7375C795.729 18.165 793.649 16.0795 791.083 16.0795C788.516 16.0795 786.436 18.165 786.436 20.7375C786.436 23.3101 788.516 25.3956 791.083 25.3956Z" fill="url(#paint29_radial_2_10567)"/>
<path d="M700.863 65.0451C703.43 65.0451 705.51 62.9597 705.51 60.3871C705.51 57.8145 703.43 55.729 700.863 55.729C698.297 55.729 696.217 57.8145 696.217 60.3871C696.217 62.9597 698.297 65.0451 700.863 65.0451Z" fill="url(#paint30_radial_2_10567)"/>
<path d="M554.68 72.5913C557.246 72.5913 559.327 70.5058 559.327 67.9332C559.327 65.3606 557.246 63.2751 554.68 63.2751C552.114 63.2751 550.033 65.3606 550.033 67.9332C550.033 70.5058 552.114 72.5913 554.68 72.5913Z" fill="url(#paint31_radial_2_10567)"/>
<path d="M543.584 440.915C546.15 440.915 548.23 438.829 548.23 436.257C548.23 433.684 546.15 431.599 543.584 431.599C541.017 431.599 538.937 433.684 538.937 436.257C538.937 438.829 541.017 440.915 543.584 440.915Z" fill="url(#paint32_radial_2_10567)"/>
<path opacity="0.2" d="M315.916 452.765C315.916 447.045 311.288 442.387 305.564 442.387C299.858 442.387 295.211 447.026 295.211 452.765C295.211 458.485 299.839 463.124 305.564 463.124C311.288 463.143 315.916 458.504 315.916 452.765Z" fill="url(#paint33_radial_2_10567)"/>
<path opacity="0.2" d="M405.467 554.87C405.467 549.15 400.839 544.51 395.114 544.51C389.389 544.51 384.761 549.15 384.761 554.87C384.761 560.59 389.389 565.248 395.114 565.248C400.839 565.248 405.467 560.609 405.467 554.87Z" fill="url(#paint34_radial_2_10567)"/>
<path d="M462.769 496.458C465.335 496.458 467.416 494.372 467.416 491.8C467.416 489.227 465.335 487.142 462.769 487.142C460.203 487.142 458.122 489.227 458.122 491.8C458.122 494.372 460.203 496.458 462.769 496.458Z" fill="url(#paint35_radial_2_10567)"/>
<path d="M47.5073 601.599C47.5073 588.445 36.8758 577.787 23.7537 577.787C10.6315 577.787 0 588.445 0 601.599C0 614.754 10.6315 625.411 23.7537 625.411C36.8758 625.411 47.5073 614.754 47.5073 601.599Z" fill="url(#paint36_radial_2_10567)"/>
<path d="M203.412 594.5C214.837 594.5 224.099 585.216 224.099 573.763C224.099 562.31 214.837 553.025 203.412 553.025C191.987 553.025 182.725 562.31 182.725 573.763C182.725 585.216 191.987 594.5 203.412 594.5Z" fill="url(#paint37_radial_2_10567)"/>
<path d="M465.501 729.621C465.501 723.901 460.873 719.262 455.149 719.262C449.443 719.262 444.796 723.901 444.796 729.621C444.796 735.341 449.424 739.999 455.149 739.999C460.873 739.999 465.501 735.36 465.501 729.621Z" fill="url(#paint38_radial_2_10567)"/>
<path opacity="0.2" d="M578.824 625.412C578.824 619.691 574.196 615.052 568.471 615.052C562.765 615.052 558.118 619.691 558.118 625.412C558.118 631.132 562.746 635.79 568.471 635.79C574.196 635.771 578.824 631.132 578.824 625.412Z" fill="url(#paint39_radial_2_10567)"/>
<path opacity="0.2" d="M234.433 708.884C234.433 703.164 229.805 698.524 224.08 698.524C218.374 698.524 213.727 703.164 213.727 708.884C213.727 714.604 218.355 719.262 224.08 719.262C229.805 719.262 234.433 714.623 234.433 708.884Z" fill="url(#paint40_radial_2_10567)"/>
<path opacity="0.2" d="M451.506 627.162C451.506 621.442 446.877 616.784 441.153 616.784C435.447 616.784 430.8 621.424 430.8 627.162C430.8 632.901 435.428 637.522 441.153 637.522C446.877 637.522 451.506 632.882 451.506 627.162Z" fill="url(#paint41_radial_2_10567)"/>
<path opacity="0.2" d="M541.056 729.268C541.056 723.548 536.428 718.89 530.703 718.89C524.997 718.89 520.35 723.529 520.35 729.268C520.35 734.988 524.978 739.627 530.703 739.627C536.409 739.627 541.056 734.988 541.056 729.268Z" fill="url(#paint42_radial_2_10567)"/>
<path d="M598.358 670.837C600.925 670.837 603.005 668.751 603.005 666.179C603.005 663.606 600.925 661.521 598.358 661.521C595.792 661.521 593.712 663.606 593.712 666.179C593.712 668.751 595.792 670.837 598.358 670.837Z" fill="url(#paint43_radial_2_10567)"/>
<path d="M445.818 523.176C448.384 523.176 450.465 521.091 450.465 518.518C450.465 515.945 448.384 513.86 445.818 513.86C443.252 513.86 441.171 515.945 441.171 518.518C441.171 521.091 443.252 523.176 445.818 523.176Z" fill="url(#paint44_radial_2_10567)"/>
<path d="M140.756 533.722C140.756 528.002 136.128 523.363 130.404 523.363C124.697 523.363 120.051 528.002 120.051 533.722C120.051 539.442 124.679 544.1 130.404 544.1C136.128 544.1 140.756 539.461 140.756 533.722Z" fill="url(#paint45_radial_2_10567)"/>
<path d="M107.468 622.076C110.034 622.076 112.114 619.991 112.114 617.418C112.114 614.846 110.034 612.76 107.468 612.76C104.901 612.76 102.821 614.846 102.821 617.418C102.821 619.991 104.901 622.076 107.468 622.076Z" fill="url(#paint46_radial_2_10567)"/>
<path d="M26.1142 602.755C28.6805 602.755 30.7608 600.669 30.7608 598.097C30.7608 595.524 28.6805 593.438 26.1142 593.438C23.5479 593.438 21.4675 595.524 21.4675 598.097C21.4675 600.669 23.5479 602.755 26.1142 602.755Z" fill="url(#paint47_radial_2_10567)"/>
<path d="M1270.64 650.919C1283.75 650.919 1294.39 640.258 1294.39 627.107C1294.39 613.956 1283.75 603.295 1270.64 603.295C1257.52 603.295 1246.88 613.956 1246.88 627.107C1246.88 640.258 1257.52 650.919 1270.64 650.919Z" fill="url(#paint48_radial_2_10567)"/>
<path d="M1091 675.681C1102.42 675.681 1111.68 666.396 1111.68 654.943C1111.68 643.49 1102.42 634.206 1091 634.206C1079.57 634.206 1070.31 643.49 1070.31 654.943C1070.31 666.396 1079.57 675.681 1091 675.681Z" fill="url(#paint49_radial_2_10567)"/>
<path opacity="0.2" d="M715.565 603.295C715.565 609.015 720.193 613.655 725.9 613.655C731.606 613.655 736.252 609.015 736.252 603.295C736.252 597.575 731.624 592.917 725.9 592.917C720.193 592.917 715.565 597.575 715.565 603.295Z" fill="url(#paint50_radial_2_10567)"/>
<path opacity="0.2" d="M1059.96 519.822C1059.96 525.543 1064.58 530.182 1070.29 530.182C1076 530.182 1080.62 525.543 1080.62 519.822C1080.62 514.102 1076 509.463 1070.29 509.463C1064.58 509.444 1059.96 514.084 1059.96 519.822Z" fill="url(#paint51_radial_2_10567)"/>
<path opacity="0.2" d="M842.884 601.543C842.884 607.263 847.512 611.922 853.218 611.922C858.924 611.922 863.57 607.282 863.57 601.543C863.57 595.823 858.942 591.184 853.218 591.184C847.512 591.184 842.884 595.823 842.884 601.543Z" fill="url(#paint52_radial_2_10567)"/>
<path d="M848.571 714.846C851.137 714.846 853.218 712.761 853.218 710.188C853.218 707.616 851.137 705.53 848.571 705.53C846.005 705.53 843.924 707.616 843.924 710.188C843.924 712.761 846.005 714.846 848.571 714.846Z" fill="url(#paint53_radial_2_10567)"/>
<path d="M1153.63 694.966C1153.63 700.686 1158.26 705.344 1163.99 705.344C1169.69 705.344 1174.32 700.705 1174.32 694.966C1174.32 689.246 1169.69 684.606 1163.99 684.606C1158.26 684.606 1153.63 689.246 1153.63 694.966Z" fill="url(#paint54_radial_2_10567)"/>
<path d="M1186.92 615.946C1189.49 615.946 1191.57 613.861 1191.57 611.288C1191.57 608.716 1189.49 606.63 1186.92 606.63C1184.36 606.63 1182.27 608.716 1182.27 611.288C1182.27 613.861 1184.36 615.946 1186.92 615.946Z" fill="url(#paint55_radial_2_10567)"/>
<path d="M1268.27 635.268C1270.84 635.268 1272.92 633.183 1272.92 630.61C1272.92 628.038 1270.84 625.952 1268.27 625.952C1265.71 625.952 1263.63 628.038 1263.63 630.61C1263.63 633.183 1265.71 635.268 1268.27 635.268Z" fill="url(#paint56_radial_2_10567)"/>
<path d="M310.229 348.797C312.795 348.797 314.876 346.711 314.876 344.139C314.876 341.566 312.795 339.481 310.229 339.481C307.663 339.481 305.582 341.566 305.582 344.139C305.582 346.711 307.663 348.797 310.229 348.797Z" fill="url(#paint57_radial_2_10567)"/>
</g>
<defs>
<radialGradient id="paint0_radial_2_10567" cx="0" cy="0" r="1" gradientUnits="userSpaceOnUse" gradientTransform="translate(134.809 443.782) scale(88.4819 88.6994)">
<stop offset="0.5642" stop-color="#DE0000"/>
<stop offset="0.6313" stop-color="#DA0000"/>
<stop offset="0.6907" stop-color="#D00000"/>
<stop offset="0.7473" stop-color="#BE0000"/>
<stop offset="0.8021" stop-color="#A40000"/>
<stop offset="0.8556" stop-color="#830000"/>
<stop offset="0.9082" stop-color="#5B0000"/>
<stop offset="0.959" stop-color="#2C0000"/>
<stop offset="1"/>
</radialGradient>
<radialGradient id="paint1_radial_2_10567" cx="0" cy="0" r="1" gradientUnits="userSpaceOnUse" gradientTransform="translate(891.814 623.327) scale(10.3442 10.3696)">
<stop offset="0.5642" stop-color="#F50000"/>
<stop offset="0.6284" stop-color="#F10000"/>
<stop offset="0.6852" stop-color="#E70000"/>
<stop offset="0.7393" stop-color="#D50000"/>
<stop offset="0.7917" stop-color="#BB0000"/>
<stop offset="0.8429" stop-color="#9A0000"/>
<stop offset="0.8933" stop-color="#720000"/>
<stop offset="0.9428" stop-color="#420000"/>
<stop offset="0.9906" stop-color="#0C0000"/>
<stop offset="1"/>
</radialGradient>
<radialGradient id="paint2_radial_2_10567" cx="0" cy="0" r="1" gradientUnits="userSpaceOnUse" gradientTransform="translate(1344.66 19.2829) scale(10.3442 10.3696)">
<stop offset="0.5642" stop-color="#F50000"/>
<stop offset="0.6284" stop-color="#F10000"/>
<stop offset="0.6852" stop-color="#E70000"/>
<stop offset="0.7393" stop-color="#D50000"/>
<stop offset="0.7917" stop-color="#BB0000"/>
<stop offset="0.8429" stop-color="#9A0000"/>
<stop offset="0.8933" stop-color="#720000"/>
<stop offset="0.9428" stop-color="#420000"/>
<stop offset="0.9906" stop-color="#0C0000"/>
<stop offset="1"/>
</radialGradient>
<radialGradient id="paint3_radial_2_10567" cx="0" cy="0" r="1" gradientUnits="userSpaceOnUse" gradientTransform="translate(234.161 59.173) scale(4.64664 4.65807)">
<stop offset="0.5642" stop-color="#F50000"/>
<stop offset="0.6284" stop-color="#F10000"/>
<stop offset="0.6852" stop-color="#E70000"/>
<stop offset="0.7393" stop-color="#D50000"/>
<stop offset="0.7917" stop-color="#BB0000"/>
<stop offset="0.8429" stop-color="#9A0000"/>
<stop offset="0.8933" stop-color="#720000"/>
<stop offset="0.9428" stop-color="#420000"/>
<stop offset="0.9906" stop-color="#0C0000"/>
<stop offset="1"/>
</radialGradient>
<radialGradient id="paint4_radial_2_10567" cx="0" cy="0" r="1" gradientUnits="userSpaceOnUse" gradientTransform="translate(644.902 423.439) scale(4.64665 4.65807)">
<stop offset="0.5642" stop-color="#F50000"/>
<stop offset="0.6284" stop-color="#F10000"/>
<stop offset="0.6852" stop-color="#E70000"/>
<stop offset="0.7393" stop-color="#D50000"/>
<stop offset="0.7917" stop-color="#BB0000"/>
<stop offset="0.8429" stop-color="#9A0000"/>
<stop offset="0.8933" stop-color="#720000"/>
<stop offset="0.9428" stop-color="#420000"/>
<stop offset="0.9906" stop-color="#0C0000"/>
<stop offset="1"/>
</radialGradient>
<radialGradient id="paint5_radial_2_10567" cx="0" cy="0" r="1" gradientUnits="userSpaceOnUse" gradientTransform="translate(1203.13 69.7109) scale(4.64665 4.65807)">
<stop offset="0.5642" stop-color="#F50000"/>
<stop offset="0.6284" stop-color="#F10000"/>
<stop offset="0.6852" stop-color="#E70000"/>
<stop offset="0.7393" stop-color="#D50000"/>
<stop offset="0.7917" stop-color="#BB0000"/>
<stop offset="0.8429" stop-color="#9A0000"/>
<stop offset="0.8933" stop-color="#720000"/>
<stop offset="0.9428" stop-color="#420000"/>
<stop offset="0.9906" stop-color="#0C0000"/>
<stop offset="1"/>
</radialGradient>
<radialGradient id="paint6_radial_2_10567" cx="0" cy="0" r="1" gradientUnits="userSpaceOnUse" gradientTransform="translate(936.021 299.844) scale(10.3442 10.3696)">
<stop offset="0.5642" stop-color="#6E008B"/>
<stop offset="0.6471" stop-color="#6B0087"/>
<stop offset="0.7204" stop-color="#63007D"/>
<stop offset="0.7902" stop-color="#54006B"/>
<stop offset="0.8578" stop-color="#400051"/>
<stop offset="0.9239" stop-color="#260030"/>
<stop offset="0.9879" stop-color="#070008"/>
<stop offset="1"/>
</radialGradient>
<radialGradient id="paint7_radial_2_10567" cx="0" cy="0" r="1" gradientUnits="userSpaceOnUse" gradientTransform="translate(460.405 227.194) scale(10.3442 10.3696)">
<stop offset="0.5642" stop-color="#EA8100"/>
<stop offset="0.6297" stop-color="#E67F00"/>
<stop offset="0.6877" stop-color="#DC7900"/>
<stop offset="0.743" stop-color="#CA6F00"/>
<stop offset="0.7965" stop-color="#B06100"/>
<stop offset="0.8487" stop-color="#8F4F00"/>
<stop offset="0.9001" stop-color="#673900"/>
<stop offset="0.95" stop-color="#371F00"/>
<stop offset="0.9989" stop-color="#010100"/>
<stop offset="1"/>
</radialGradient>
<radialGradient id="paint8_radial_2_10567" cx="0" cy="0" r="1" gradientUnits="userSpaceOnUse" gradientTransform="translate(72.3231 227.194) scale(10.344 10.3694)">
<stop offset="0.5642" stop-color="#EA8100"/>
<stop offset="0.6297" stop-color="#E67F00"/>
<stop offset="0.6877" stop-color="#DC7900"/>
<stop offset="0.743" stop-color="#CA6F00"/>
<stop offset="0.7965" stop-color="#B06100"/>
<stop offset="0.8487" stop-color="#8F4F00"/>
<stop offset="0.9001" stop-color="#673900"/>
<stop offset="0.95" stop-color="#371F00"/>
<stop offset="0.9989" stop-color="#010100"/>
<stop offset="1"/>
</radialGradient>
<radialGradient id="paint9_radial_2_10567" cx="0" cy="0" r="1" gradientUnits="userSpaceOnUse" gradientTransform="translate(1005.14 519.106) scale(10.3442 10.3696)">
<stop offset="0.5642" stop-color="#EA8100"/>
<stop offset="0.6297" stop-color="#E67F00"/>
<stop offset="0.6877" stop-color="#DC7900"/>
<stop offset="0.743" stop-color="#CA6F00"/>
<stop offset="0.7965" stop-color="#B06100"/>
<stop offset="0.8487" stop-color="#8F4F00"/>
<stop offset="0.9001" stop-color="#673900"/>
<stop offset="0.95" stop-color="#371F00"/>
<stop offset="0.9989" stop-color="#010100"/>
<stop offset="1"/>
</radialGradient>
<radialGradient id="paint10_radial_2_10567" cx="0" cy="0" r="1" gradientUnits="userSpaceOnUse" gradientTransform="translate(660.744 602.588) scale(10.3442 10.3696)">
<stop offset="0.5642" stop-color="#EA8100"/>
<stop offset="0.6297" stop-color="#E67F00"/>
<stop offset="0.6877" stop-color="#DC7900"/>
<stop offset="0.743" stop-color="#CA6F00"/>
<stop offset="0.7965" stop-color="#B06100"/>
<stop offset="0.8487" stop-color="#8F4F00"/>
<stop offset="0.9001" stop-color="#673900"/>
<stop offset="0.95" stop-color="#371F00"/>
<stop offset="0.9989" stop-color="#010100"/>
<stop offset="1"/>
</radialGradient>
<radialGradient id="paint11_radial_2_10567" cx="0" cy="0" r="1" gradientUnits="userSpaceOnUse" gradientTransform="translate(161.859 329.3) scale(10.3442 10.3696)">
<stop offset="0.5642" stop-color="#EA8100"/>
<stop offset="0.6297" stop-color="#E67F00"/>
<stop offset="0.6877" stop-color="#DC7900"/>
<stop offset="0.743" stop-color="#CA6F00"/>
<stop offset="0.7965" stop-color="#B06100"/>
<stop offset="0.8487" stop-color="#8F4F00"/>
<stop offset="0.9001" stop-color="#673900"/>
<stop offset="0.95" stop-color="#371F00"/>
<stop offset="0.9989" stop-color="#010100"/>
<stop offset="1"/>
</radialGradient>
<radialGradient id="paint12_radial_2_10567" cx="0" cy="0" r="1" gradientUnits="userSpaceOnUse" gradientTransform="translate(1314.99 266.222) scale(10.344 10.3694)">
<stop offset="0.5642" stop-color="#EA8100"/>
<stop offset="0.6297" stop-color="#E67F00"/>
<stop offset="0.6877" stop-color="#DC7900"/>
<stop offset="0.743" stop-color="#CA6F00"/>
<stop offset="0.7965" stop-color="#B06100"/>
<stop offset="0.8487" stop-color="#8F4F00"/>
<stop offset="0.9001" stop-color="#673900"/>
<stop offset="0.95" stop-color="#371F00"/>
<stop offset="0.9989" stop-color="#010100"/>
<stop offset="1"/>
</radialGradient>
<radialGradient id="paint13_radial_2_10567" cx="0" cy="0" r="1" gradientUnits="userSpaceOnUse" gradientTransform="translate(436.653 648.892) scale(10.344 10.3694)">
<stop offset="0.5642" stop-color="#F50000"/>
<stop offset="0.6284" stop-color="#F10000"/>
<stop offset="0.6852" stop-color="#E70000"/>
<stop offset="0.7393" stop-color="#D50000"/>
<stop offset="0.7917" stop-color="#BB0000"/>
<stop offset="0.8429" stop-color="#9A0000"/>
<stop offset="0.8933" stop-color="#720000"/>
<stop offset="0.9428" stop-color="#420000"/>
<stop offset="0.9906" stop-color="#0C0000"/>
<stop offset="1"/>
</radialGradient>
<radialGradient id="paint14_radial_2_10567" cx="0" cy="0" r="1" gradientUnits="userSpaceOnUse" gradientTransform="translate(1255.2 403.37) scale(10.3433 10.3687)">
<stop offset="0.5642" stop-color="#F50000"/>
<stop offset="0.6284" stop-color="#F10000"/>
<stop offset="0.6852" stop-color="#E70000"/>
<stop offset="0.7393" stop-color="#D50000"/>
<stop offset="0.7917" stop-color="#BB0000"/>
<stop offset="0.8429" stop-color="#9A0000"/>
<stop offset="0.8933" stop-color="#720000"/>
<stop offset="0.9428" stop-color="#420000"/>
<stop offset="0.9906" stop-color="#0C0000"/>
<stop offset="1"/>
</radialGradient>
<radialGradient id="paint15_radial_2_10567" cx="0" cy="0" r="1" gradientUnits="userSpaceOnUse" gradientTransform="translate(1232.31 285.533) scale(10.3442 10.3696)">
<stop offset="0.5642" stop-color="#F50000"/>
<stop offset="0.6284" stop-color="#F10000"/>
<stop offset="0.6852" stop-color="#E70000"/>
<stop offset="0.7393" stop-color="#D50000"/>
<stop offset="0.7917" stop-color="#BB0000"/>
<stop offset="0.8429" stop-color="#9A0000"/>
<stop offset="0.8933" stop-color="#720000"/>
<stop offset="0.9428" stop-color="#420000"/>
<stop offset="0.9906" stop-color="#0C0000"/>
<stop offset="1"/>
</radialGradient>
<radialGradient id="paint16_radial_2_10567" cx="0" cy="0" r="1" gradientUnits="userSpaceOnUse" gradientTransform="translate(1104.14 104.233) scale(4.64665 4.65807)">
<stop offset="0.5642" stop-color="#7000B2"/>
<stop offset="0.6383" stop-color="#6E00AE"/>
<stop offset="0.704" stop-color="#6700A4"/>
<stop offset="0.7664" stop-color="#5C0092"/>
<stop offset="0.8269" stop-color="#4C0078"/>
<stop offset="0.886" stop-color="#370057"/>
<stop offset="0.9432" stop-color="#1E002F"/>
<stop offset="0.9994" stop-color="#000001"/>
<stop offset="1"/>
</radialGradient>
<radialGradient id="paint17_radial_2_10567" cx="0" cy="0" r="1" gradientUnits="userSpaceOnUse" gradientTransform="translate(310.87 285.533) scale(4.64665 4.65807)">
<stop offset="0.5642" stop-color="#7000B2"/>
<stop offset="0.6383" stop-color="#6E00AE"/>
<stop offset="0.704" stop-color="#6700A4"/>
<stop offset="0.7664" stop-color="#5C0092"/>
<stop offset="0.8269" stop-color="#4C0078"/>
<stop offset="0.886" stop-color="#370057"/>
<stop offset="0.9432" stop-color="#1E002F"/>
<stop offset="0.9994" stop-color="#000001"/>
<stop offset="1"/>
</radialGradient>
<radialGradient id="paint18_radial_2_10567" cx="0" cy="0" r="1" gradientUnits="userSpaceOnUse" gradientTransform="translate(831.722 364.214) scale(4.64683 4.65826)">
<stop offset="0.5642" stop-color="#7000B2"/>
<stop offset="0.6383" stop-color="#6E00AE"/>
<stop offset="0.704" stop-color="#6700A4"/>
<stop offset="0.7664" stop-color="#5C0092"/>
<stop offset="0.8269" stop-color="#4C0078"/>
<stop offset="0.886" stop-color="#370057"/>
<stop offset="0.9432" stop-color="#1E002F"/>
<stop offset="0.9994" stop-color="#000001"/>
<stop offset="1"/>
</radialGradient>
<radialGradient id="paint19_radial_2_10567" cx="0" cy="0" r="1" gradientUnits="userSpaceOnUse" gradientTransform="translate(76.9694 118.553) scale(4.64665 4.65807)">
<stop offset="0.5642" stop-color="#7000B2"/>
<stop offset="0.6383" stop-color="#6E00AE"/>
<stop offset="0.704" stop-color="#6700A4"/>
<stop offset="0.7664" stop-color="#5C0092"/>
<stop offset="0.8269" stop-color="#4C0078"/>
<stop offset="0.886" stop-color="#370057"/>
<stop offset="0.9432" stop-color="#1E002F"/>
<stop offset="0.9994" stop-color="#000001"/>
<stop offset="1"/>
</radialGradient>
<radialGradient id="paint20_radial_2_10567" cx="0" cy="0" r="1" gradientUnits="userSpaceOnUse" gradientTransform="translate(1039.66 352.834) scale(4.64665 4.65807)">
<stop offset="0.5642" stop-color="#F50000"/>
<stop offset="0.6284" stop-color="#F10000"/>
<stop offset="0.6852" stop-color="#E70000"/>
<stop offset="0.7393" stop-color="#D50000"/>
<stop offset="0.7917" stop-color="#BB0000"/>
<stop offset="0.8429" stop-color="#9A0000"/>
<stop offset="0.8933" stop-color="#720000"/>
<stop offset="0.9428" stop-color="#420000"/>
<stop offset="0.9906" stop-color="#0C0000"/>
<stop offset="1"/>
</radialGradient>
<radialGradient id="paint21_radial_2_10567" cx="0" cy="0" r="1" gradientUnits="userSpaceOnUse" gradientTransform="translate(1006.11 398.712) scale(4.64665 4.65807)">
<stop offset="0.5642" stop-color="#F50000"/>
<stop offset="0.6284" stop-color="#F10000"/>
<stop offset="0.6852" stop-color="#E70000"/>
<stop offset="0.7393" stop-color="#D50000"/>
<stop offset="0.7917" stop-color="#BB0000"/>
<stop offset="0.8429" stop-color="#9A0000"/>
<stop offset="0.8933" stop-color="#720000"/>
<stop offset="0.9428" stop-color="#420000"/>
<stop offset="0.9906" stop-color="#0C0000"/>
<stop offset="1"/>
</radialGradient>
<radialGradient id="paint22_radial_2_10567" cx="0" cy="0" r="1" gradientUnits="userSpaceOnUse" gradientTransform="translate(1139.31 495.514) scale(10.3442 10.3696)">
<stop offset="0.5642" stop-color="#6E008B"/>
<stop offset="0.6471" stop-color="#6B0087"/>
<stop offset="0.7204" stop-color="#63007D"/>
<stop offset="0.7902" stop-color="#54006B"/>
<stop offset="0.8578" stop-color="#400051"/>
<stop offset="0.9239" stop-color="#260030"/>
<stop offset="0.9879" stop-color="#070008"/>
<stop offset="1"/>
</radialGradient>
<radialGradient id="paint23_radial_2_10567" cx="0" cy="0" r="1" gradientUnits="userSpaceOnUse" gradientTransform="translate(967.359 622.959) scale(10.3442 10.3696)">
<stop offset="0.5642" stop-color="#EA8100"/>
<stop offset="0.6297" stop-color="#E67F00"/>
<stop offset="0.6877" stop-color="#DC7900"/>
<stop offset="0.743" stop-color="#CA6F00"/>
<stop offset="0.7965" stop-color="#B06100"/>
<stop offset="0.8487" stop-color="#8F4F00"/>
<stop offset="0.9001" stop-color="#673900"/>
<stop offset="0.95" stop-color="#371F00"/>
<stop offset="0.9989" stop-color="#010100"/>
<stop offset="1"/>
</radialGradient>
<radialGradient id="paint24_radial_2_10567" cx="0" cy="0" r="1" gradientUnits="userSpaceOnUse" gradientTransform="translate(1116.37 579.194) scale(4.64665 4.65807)">
<stop offset="0.5642" stop-color="#7000B2"/>
<stop offset="0.6383" stop-color="#6E00AE"/>
<stop offset="0.704" stop-color="#6700A4"/>
<stop offset="0.7664" stop-color="#5C0092"/>
<stop offset="0.8269" stop-color="#4C0078"/>
<stop offset="0.886" stop-color="#370057"/>
<stop offset="0.9432" stop-color="#1E002F"/>
<stop offset="0.9994" stop-color="#000001"/>
<stop offset="1"/>
</radialGradient>
<radialGradient id="paint25_radial_2_10567" cx="0" cy="0" r="1" gradientUnits="userSpaceOnUse" gradientTransform="translate(1035.01 559.885) scale(4.64665 4.65807)">
<stop offset="0.5642" stop-color="#7000B2"/>
<stop offset="0.6383" stop-color="#6E00AE"/>
<stop offset="0.704" stop-color="#6700A4"/>
<stop offset="0.7664" stop-color="#5C0092"/>
<stop offset="0.8269" stop-color="#4C0078"/>
<stop offset="0.886" stop-color="#370057"/>
<stop offset="0.9432" stop-color="#1E002F"/>
<stop offset="0.9994" stop-color="#000001"/>
<stop offset="1"/>
</radialGradient>
<radialGradient id="paint26_radial_2_10567" cx="0" cy="0" r="1" gradientUnits="userSpaceOnUse" gradientTransform="translate(467.417 284.748) scale(4.64665 4.65807)">
<stop offset="0.5642" stop-color="#F50000"/>
<stop offset="0.6284" stop-color="#F10000"/>
<stop offset="0.6852" stop-color="#E70000"/>
<stop offset="0.7393" stop-color="#D50000"/>
<stop offset="0.7917" stop-color="#BB0000"/>
<stop offset="0.8429" stop-color="#9A0000"/>
<stop offset="0.8933" stop-color="#720000"/>
<stop offset="0.9428" stop-color="#420000"/>
<stop offset="0.9906" stop-color="#0C0000"/>
<stop offset="1"/>
</radialGradient>
<radialGradient id="paint27_radial_2_10567" cx="0" cy="0" r="1" gradientUnits="userSpaceOnUse" gradientTransform="translate(433.866 330.627) scale(4.64665 4.65807)">
<stop offset="0.5642" stop-color="#F50000"/>
<stop offset="0.6284" stop-color="#F10000"/>
<stop offset="0.6852" stop-color="#E70000"/>
<stop offset="0.7393" stop-color="#D50000"/>
<stop offset="0.7917" stop-color="#BB0000"/>
<stop offset="0.8429" stop-color="#9A0000"/>
<stop offset="0.8933" stop-color="#720000"/>
<stop offset="0.9428" stop-color="#420000"/>
<stop offset="0.9906" stop-color="#0C0000"/>
<stop offset="1"/>
</radialGradient>
<radialGradient id="paint28_radial_2_10567" cx="0" cy="0" r="1" gradientUnits="userSpaceOnUse" gradientTransform="translate(547.661 10.3694) scale(10.3444 10.3698)">
<stop offset="0.5642" stop-color="#EA8100"/>
<stop offset="0.6297" stop-color="#E67F00"/>
<stop offset="0.6877" stop-color="#DC7900"/>
<stop offset="0.743" stop-color="#CA6F00"/>
<stop offset="0.7965" stop-color="#B06100"/>
<stop offset="0.8487" stop-color="#8F4F00"/>
<stop offset="0.9001" stop-color="#673900"/>
<stop offset="0.95" stop-color="#371F00"/>
<stop offset="0.9989" stop-color="#010100"/>
<stop offset="1"/>
</radialGradient>
<radialGradient id="paint29_radial_2_10567" cx="0" cy="0" r="1" gradientUnits="userSpaceOnUse" gradientTransform="translate(791.078 20.7392) scale(4.64665 4.65807)">
<stop offset="0.5642" stop-color="#7000B2"/>
<stop offset="0.6383" stop-color="#6E00AE"/>
<stop offset="0.704" stop-color="#6700A4"/>
<stop offset="0.7664" stop-color="#5C0092"/>
<stop offset="0.8269" stop-color="#4C0078"/>
<stop offset="0.886" stop-color="#370057"/>
<stop offset="0.9432" stop-color="#1E002F"/>
<stop offset="0.9994" stop-color="#000001"/>
<stop offset="1"/>
</radialGradient>
<radialGradient id="paint30_radial_2_10567" cx="0" cy="0" r="1" gradientUnits="userSpaceOnUse" gradientTransform="translate(700.861 60.3947) scale(4.64665 4.65807)">
<stop offset="0.5642" stop-color="#7000B2"/>
<stop offset="0.6383" stop-color="#6E00AE"/>
<stop offset="0.704" stop-color="#6700A4"/>
<stop offset="0.7664" stop-color="#5C0092"/>
<stop offset="0.8269" stop-color="#4C0078"/>
<stop offset="0.886" stop-color="#370057"/>
<stop offset="0.9432" stop-color="#1E002F"/>
<stop offset="0.9994" stop-color="#000001"/>
<stop offset="1"/>
</radialGradient>
<radialGradient id="paint31_radial_2_10567" cx="0" cy="0" r="1" gradientUnits="userSpaceOnUse" gradientTransform="translate(554.673 67.925) scale(4.64665 4.65807)">
<stop offset="0.5642" stop-color="#F50000"/>
<stop offset="0.6284" stop-color="#F10000"/>
<stop offset="0.6852" stop-color="#E70000"/>
<stop offset="0.7393" stop-color="#D50000"/>
<stop offset="0.7917" stop-color="#BB0000"/>
<stop offset="0.8429" stop-color="#9A0000"/>
<stop offset="0.8933" stop-color="#720000"/>
<stop offset="0.9428" stop-color="#420000"/>
<stop offset="0.9906" stop-color="#0C0000"/>
<stop offset="1"/>
</radialGradient>
<radialGradient id="paint32_radial_2_10567" cx="0" cy="0" r="1" gradientUnits="userSpaceOnUse" gradientTransform="translate(543.576 436.264) scale(4.64665 4.65807)">
<stop offset="0.5642" stop-color="#F50000"/>
<stop offset="0.6284" stop-color="#F10000"/>
<stop offset="0.6852" stop-color="#E70000"/>
<stop offset="0.7393" stop-color="#D50000"/>
<stop offset="0.7917" stop-color="#BB0000"/>
<stop offset="0.8429" stop-color="#9A0000"/>
<stop offset="0.8933" stop-color="#720000"/>
<stop offset="0.9428" stop-color="#420000"/>
<stop offset="0.9906" stop-color="#0C0000"/>
<stop offset="1"/>
</radialGradient>
<radialGradient id="paint33_radial_2_10567" cx="0" cy="0" r="1" gradientUnits="userSpaceOnUse" gradientTransform="translate(305.578 452.77) scale(10.3442 10.3696)">
<stop offset="0.5642" stop-color="#EA8100"/>
<stop offset="0.6297" stop-color="#E67F00"/>
<stop offset="0.6877" stop-color="#DC7900"/>
<stop offset="0.743" stop-color="#CA6F00"/>
<stop offset="0.7965" stop-color="#B06100"/>
<stop offset="0.8487" stop-color="#8F4F00"/>
<stop offset="0.9001" stop-color="#673900"/>
<stop offset="0.95" stop-color="#371F00"/>
<stop offset="0.9989" stop-color="#010100"/>
<stop offset="1"/>
</radialGradient>
<radialGradient id="paint34_radial_2_10567" cx="0" cy="0" r="1" gradientUnits="userSpaceOnUse" gradientTransform="translate(395.115 554.876) scale(10.3442 10.3696)">
<stop offset="0.5642" stop-color="#EA8100"/>
<stop offset="0.6297" stop-color="#E67F00"/>
<stop offset="0.6877" stop-color="#DC7900"/>
<stop offset="0.743" stop-color="#CA6F00"/>
<stop offset="0.7965" stop-color="#B06100"/>
<stop offset="0.8487" stop-color="#8F4F00"/>
<stop offset="0.9001" stop-color="#673900"/>
<stop offset="0.95" stop-color="#371F00"/>
<stop offset="0.9989" stop-color="#010100"/>
<stop offset="1"/>
</radialGradient>
<radialGradient id="paint35_radial_2_10567" cx="0" cy="0" r="1" gradientUnits="userSpaceOnUse" gradientTransform="translate(462.77 491.797) scale(4.64665 4.65807)">
<stop offset="0.5642" stop-color="#7000B2"/>
<stop offset="0.6383" stop-color="#6E00AE"/>
<stop offset="0.704" stop-color="#6700A4"/>
<stop offset="0.7664" stop-color="#5C0092"/>
<stop offset="0.8269" stop-color="#4C0078"/>
<stop offset="0.886" stop-color="#370057"/>
<stop offset="0.9432" stop-color="#1E002F"/>
<stop offset="0.9994" stop-color="#000001"/>
<stop offset="1"/>
</radialGradient>
<radialGradient id="paint36_radial_2_10567" cx="0" cy="0" r="1" gradientUnits="userSpaceOnUse" gradientTransform="translate(23.752 601.598) scale(23.7513 23.8096)">
<stop offset="0.5642" stop-color="#B82B00"/>
<stop offset="0.6372" stop-color="#B42A00"/>
<stop offset="0.7019" stop-color="#AA2800"/>
<stop offset="0.7634" stop-color="#982300"/>
<stop offset="0.823" stop-color="#7E1D00"/>
<stop offset="0.8812" stop-color="#5D1600"/>
<stop offset="0.9384" stop-color="#350C00"/>
<stop offset="0.9938" stop-color="#060100"/>
<stop offset="1"/>
</radialGradient>
<radialGradient id="paint37_radial_2_10567" cx="0" cy="0" r="1" gradientUnits="userSpaceOnUse" gradientTransform="translate(203.404 573.764) scale(20.6886 20.7394)">
<stop offset="0.5642" stop-color="#B82B00"/>
<stop offset="0.6372" stop-color="#B42A00"/>
<stop offset="0.7019" stop-color="#AA2800"/>
<stop offset="0.7634" stop-color="#982300"/>
<stop offset="0.823" stop-color="#7E1D00"/>
<stop offset="0.8812" stop-color="#5D1600"/>
<stop offset="0.9384" stop-color="#350C00"/>
<stop offset="0.9938" stop-color="#060100"/>
<stop offset="1"/>
</radialGradient>
<radialGradient id="paint38_radial_2_10567" cx="0" cy="0" r="1" gradientUnits="userSpaceOnUse" gradientTransform="translate(455.161 729.629) scale(10.3442 10.3696)">
<stop offset="0.5642" stop-color="#F50000"/>
<stop offset="0.6284" stop-color="#F10000"/>
<stop offset="0.6852" stop-color="#E70000"/>
<stop offset="0.7393" stop-color="#D50000"/>
<stop offset="0.7917" stop-color="#BB0000"/>
<stop offset="0.8429" stop-color="#9A0000"/>
<stop offset="0.8933" stop-color="#720000"/>
<stop offset="0.9428" stop-color="#420000"/>
<stop offset="0.9906" stop-color="#0C0000"/>
<stop offset="1"/>
</radialGradient>
<radialGradient id="paint39_radial_2_10567" cx="0" cy="0" r="1" gradientUnits="userSpaceOnUse" gradientTransform="translate(568.485 625.409) scale(10.3442 10.3696)">
<stop offset="0.5642" stop-color="#EA8100"/>
<stop offset="0.6297" stop-color="#E67F00"/>
<stop offset="0.6877" stop-color="#DC7900"/>
<stop offset="0.743" stop-color="#CA6F00"/>
<stop offset="0.7965" stop-color="#B06100"/>
<stop offset="0.8487" stop-color="#8F4F00"/>
<stop offset="0.9001" stop-color="#673900"/>
<stop offset="0.95" stop-color="#371F00"/>
<stop offset="0.9989" stop-color="#010100"/>
<stop offset="1"/>
</radialGradient>
<radialGradient id="paint40_radial_2_10567" cx="0" cy="0" r="1" gradientUnits="userSpaceOnUse" gradientTransform="translate(224.092 708.89) scale(10.3442 10.3696)">
<stop offset="0.5642" stop-color="#EA8100"/>
<stop offset="0.6297" stop-color="#E67F00"/>
<stop offset="0.6877" stop-color="#DC7900"/>
<stop offset="0.743" stop-color="#CA6F00"/>
<stop offset="0.7965" stop-color="#B06100"/>
<stop offset="0.8487" stop-color="#8F4F00"/>
<stop offset="0.9001" stop-color="#673900"/>
<stop offset="0.95" stop-color="#371F00"/>
<stop offset="0.9989" stop-color="#010100"/>
<stop offset="1"/>
</radialGradient>
<radialGradient id="paint41_radial_2_10567" cx="0" cy="0" r="1" gradientUnits="userSpaceOnUse" gradientTransform="translate(441.169 627.155) scale(10.344 10.3694)">
<stop offset="0.5642" stop-color="#EA8100"/>
<stop offset="0.6297" stop-color="#E67F00"/>
<stop offset="0.6877" stop-color="#DC7900"/>
<stop offset="0.743" stop-color="#CA6F00"/>
<stop offset="0.7965" stop-color="#B06100"/>
<stop offset="0.8487" stop-color="#8F4F00"/>
<stop offset="0.9001" stop-color="#673900"/>
<stop offset="0.95" stop-color="#371F00"/>
<stop offset="0.9989" stop-color="#010100"/>
<stop offset="1"/>
</radialGradient>
<radialGradient id="paint42_radial_2_10567" cx="0" cy="0" r="1" gradientUnits="userSpaceOnUse" gradientTransform="translate(530.706 729.262) scale(10.3442 10.3696)">
<stop offset="0.5642" stop-color="#EA8100"/>
<stop offset="0.6297" stop-color="#E67F00"/>
<stop offset="0.6877" stop-color="#DC7900"/>
<stop offset="0.743" stop-color="#CA6F00"/>
<stop offset="0.7965" stop-color="#B06100"/>
<stop offset="0.8487" stop-color="#8F4F00"/>
<stop offset="0.9001" stop-color="#673900"/>
<stop offset="0.95" stop-color="#371F00"/>
<stop offset="0.9989" stop-color="#010100"/>
<stop offset="1"/>
</radialGradient>
<radialGradient id="paint43_radial_2_10567" cx="0" cy="0" r="1" gradientUnits="userSpaceOnUse" gradientTransform="translate(598.361 666.187) scale(4.64665 4.65807)">
<stop offset="0.5642" stop-color="#7000B2"/>
<stop offset="0.6383" stop-color="#6E00AE"/>
<stop offset="0.704" stop-color="#6700A4"/>
<stop offset="0.7664" stop-color="#5C0092"/>
<stop offset="0.8269" stop-color="#4C0078"/>
<stop offset="0.886" stop-color="#370057"/>
<stop offset="0.9432" stop-color="#1E002F"/>
<stop offset="0.9994" stop-color="#000001"/>
<stop offset="1"/>
</radialGradient>
<radialGradient id="paint44_radial_2_10567" cx="0" cy="0" r="1" gradientUnits="userSpaceOnUse" gradientTransform="translate(445.816 518.515) scale(4.64665 4.65807)">
<stop offset="0.5642" stop-color="#7000B2"/>
<stop offset="0.6383" stop-color="#6E00AE"/>
<stop offset="0.704" stop-color="#6700A4"/>
<stop offset="0.7664" stop-color="#5C0092"/>
<stop offset="0.8269" stop-color="#4C0078"/>
<stop offset="0.886" stop-color="#370057"/>
<stop offset="0.9432" stop-color="#1E002F"/>
<stop offset="0.9994" stop-color="#000001"/>
<stop offset="1"/>
</radialGradient>
<radialGradient id="paint45_radial_2_10567" cx="0" cy="0" r="1" gradientUnits="userSpaceOnUse" gradientTransform="translate(130.416 533.732) scale(10.344 10.3694)">
<stop offset="0.5642" stop-color="#6E008B"/>
<stop offset="0.6471" stop-color="#6B0087"/>
<stop offset="0.7204" stop-color="#63007D"/>
<stop offset="0.7902" stop-color="#54006B"/>
<stop offset="0.8578" stop-color="#400051"/>
<stop offset="0.9239" stop-color="#260030"/>
<stop offset="0.9879" stop-color="#070008"/>
<stop offset="1"/>
</radialGradient>
<radialGradient id="paint46_radial_2_10567" cx="0" cy="0" r="1" gradientUnits="userSpaceOnUse" gradientTransform="translate(107.471 617.412) scale(4.64665 4.65807)">
<stop offset="0.5642" stop-color="#7000B2"/>
<stop offset="0.6383" stop-color="#6E00AE"/>
<stop offset="0.704" stop-color="#6700A4"/>
<stop offset="0.7664" stop-color="#5C0092"/>
<stop offset="0.8269" stop-color="#4C0078"/>
<stop offset="0.886" stop-color="#370057"/>
<stop offset="0.9432" stop-color="#1E002F"/>
<stop offset="0.9994" stop-color="#000001"/>
<stop offset="1"/>
</radialGradient>
<radialGradient id="paint47_radial_2_10567" cx="0" cy="0" r="1" gradientUnits="userSpaceOnUse" gradientTransform="translate(26.1166 598.099) scale(4.64665 4.65807)">
<stop offset="0.5642" stop-color="#7000B2"/>
<stop offset="0.6383" stop-color="#6E00AE"/>
<stop offset="0.704" stop-color="#6700A4"/>
<stop offset="0.7664" stop-color="#5C0092"/>
<stop offset="0.8269" stop-color="#4C0078"/>
<stop offset="0.886" stop-color="#370057"/>
<stop offset="0.9432" stop-color="#1E002F"/>
<stop offset="0.9994" stop-color="#000001"/>
<stop offset="1"/>
</radialGradient>
<radialGradient id="paint48_radial_2_10567" cx="0" cy="0" r="1" gradientUnits="userSpaceOnUse" gradientTransform="translate(1270.64 627.107) rotate(180) scale(23.7524 23.8108)">
<stop offset="0.5642" stop-color="#B82B00"/>
<stop offset="0.6372" stop-color="#B42A00"/>
<stop offset="0.7019" stop-color="#AA2800"/>
<stop offset="0.7634" stop-color="#982300"/>
<stop offset="0.823" stop-color="#7E1D00"/>
<stop offset="0.8812" stop-color="#5D1600"/>
<stop offset="0.9384" stop-color="#350C00"/>
<stop offset="0.9938" stop-color="#060100"/>
<stop offset="1"/>
</radialGradient>
<radialGradient id="paint49_radial_2_10567" cx="0" cy="0" r="1" gradientUnits="userSpaceOnUse" gradientTransform="translate(1090.99 654.938) rotate(180) scale(20.6886 20.7394)">
<stop offset="0.5642" stop-color="#B82B00"/>
<stop offset="0.6372" stop-color="#B42A00"/>
<stop offset="0.7019" stop-color="#AA2800"/>
<stop offset="0.7634" stop-color="#982300"/>
<stop offset="0.823" stop-color="#7E1D00"/>
<stop offset="0.8812" stop-color="#5D1600"/>
<stop offset="0.9384" stop-color="#350C00"/>
<stop offset="0.9938" stop-color="#060100"/>
<stop offset="1"/>
</radialGradient>
<radialGradient id="paint50_radial_2_10567" cx="0" cy="0" r="1" gradientUnits="userSpaceOnUse" gradientTransform="translate(725.911 603.294) rotate(180) scale(10.3442 10.3696)">
<stop offset="0.5642" stop-color="#EA8100"/>
<stop offset="0.6297" stop-color="#E67F00"/>
<stop offset="0.6877" stop-color="#DC7900"/>
<stop offset="0.743" stop-color="#CA6F00"/>
<stop offset="0.7965" stop-color="#B06100"/>
<stop offset="0.8487" stop-color="#8F4F00"/>
<stop offset="0.9001" stop-color="#673900"/>
<stop offset="0.95" stop-color="#371F00"/>
<stop offset="0.9989" stop-color="#010100"/>
<stop offset="1"/>
</radialGradient>
<radialGradient id="paint51_radial_2_10567" cx="0" cy="0" r="1" gradientUnits="userSpaceOnUse" gradientTransform="translate(1070.3 519.815) rotate(180) scale(10.3423 10.3677)">
<stop offset="0.5642" stop-color="#EA8100"/>
<stop offset="0.6297" stop-color="#E67F00"/>
<stop offset="0.6877" stop-color="#DC7900"/>
<stop offset="0.743" stop-color="#CA6F00"/>
<stop offset="0.7965" stop-color="#B06100"/>
<stop offset="0.8487" stop-color="#8F4F00"/>
<stop offset="0.9001" stop-color="#673900"/>
<stop offset="0.95" stop-color="#371F00"/>
<stop offset="0.9989" stop-color="#010100"/>
<stop offset="1"/>
</radialGradient>
<radialGradient id="paint52_radial_2_10567" cx="0" cy="0" r="1" gradientUnits="userSpaceOnUse" gradientTransform="translate(853.226 601.547) rotate(180) scale(10.3442 10.3696)">
<stop offset="0.5642" stop-color="#EA8100"/>
<stop offset="0.6297" stop-color="#E67F00"/>
<stop offset="0.6877" stop-color="#DC7900"/>
<stop offset="0.743" stop-color="#CA6F00"/>
<stop offset="0.7965" stop-color="#B06100"/>
<stop offset="0.8487" stop-color="#8F4F00"/>
<stop offset="0.9001" stop-color="#673900"/>
<stop offset="0.95" stop-color="#371F00"/>
<stop offset="0.9989" stop-color="#010100"/>
<stop offset="1"/>
</radialGradient>
<radialGradient id="paint53_radial_2_10567" cx="0" cy="0" r="1" gradientUnits="userSpaceOnUse" gradientTransform="translate(848.577 710.188) rotate(180) scale(4.64665 4.65807)">
<stop offset="0.5642" stop-color="#7000B2"/>
<stop offset="0.6383" stop-color="#6E00AE"/>
<stop offset="0.704" stop-color="#6700A4"/>
<stop offset="0.7664" stop-color="#5C0092"/>
<stop offset="0.8269" stop-color="#4C0078"/>
<stop offset="0.886" stop-color="#370057"/>
<stop offset="0.9432" stop-color="#1E002F"/>
<stop offset="0.9994" stop-color="#000001"/>
<stop offset="1"/>
</radialGradient>
<radialGradient id="paint54_radial_2_10567" cx="0" cy="0" r="1" gradientUnits="userSpaceOnUse" gradientTransform="translate(1163.98 694.975) rotate(180) scale(10.3442 10.3696)">
<stop offset="0.5642" stop-color="#6E008B"/>
<stop offset="0.6471" stop-color="#6B0087"/>
<stop offset="0.7204" stop-color="#63007D"/>
<stop offset="0.7902" stop-color="#54006B"/>
<stop offset="0.8578" stop-color="#400051"/>
<stop offset="0.9239" stop-color="#260030"/>
<stop offset="0.9879" stop-color="#070008"/>
<stop offset="1"/>
</radialGradient>
<radialGradient id="paint55_radial_2_10567" cx="0" cy="0" r="1" gradientUnits="userSpaceOnUse" gradientTransform="translate(1186.92 611.295) rotate(180) scale(4.64665 4.65807)">
<stop offset="0.5642" stop-color="#7000B2"/>
<stop offset="0.6383" stop-color="#6E00AE"/>
<stop offset="0.704" stop-color="#6700A4"/>
<stop offset="0.7664" stop-color="#5C0092"/>
<stop offset="0.8269" stop-color="#4C0078"/>
<stop offset="0.886" stop-color="#370057"/>
<stop offset="0.9432" stop-color="#1E002F"/>
<stop offset="0.9994" stop-color="#000001"/>
<stop offset="1"/>
</radialGradient>
<radialGradient id="paint56_radial_2_10567" cx="0" cy="0" r="1" gradientUnits="userSpaceOnUse" gradientTransform="translate(1268.28 630.604) rotate(180) scale(4.64665 4.65807)">
<stop offset="0.5642" stop-color="#7000B2"/>
<stop offset="0.6383" stop-color="#6E00AE"/>
<stop offset="0.704" stop-color="#6700A4"/>
<stop offset="0.7664" stop-color="#5C0092"/>
<stop offset="0.8269" stop-color="#4C0078"/>
<stop offset="0.886" stop-color="#370057"/>
<stop offset="0.9432" stop-color="#1E002F"/>
<stop offset="0.9994" stop-color="#000001"/>
<stop offset="1"/>
</radialGradient>
<radialGradient id="paint57_radial_2_10567" cx="0" cy="0" r="1" gradientUnits="userSpaceOnUse" gradientTransform="translate(310.225 344.13) scale(4.64665 4.65807)">
<stop offset="0.5642" stop-color="#7000B2"/>
<stop offset="0.6383" stop-color="#6E00AE"/>
<stop offset="0.704" stop-color="#6700A4"/>
<stop offset="0.7664" stop-color="#5C0092"/>
<stop offset="0.8269" stop-color="#4C0078"/>
<stop offset="0.886" stop-color="#370057"/>
<stop offset="0.9432" stop-color="#1E002F"/>
<stop offset="0.9994" stop-color="#000001"/>
<stop offset="1"/>
</radialGradient>
<clipPath id="clip0_2_10567">
<rect width="1355" height="740" fill="white"/>
</clipPath>
</defs>
</svg>
