<svg width="40" height="40" viewBox="0 0 40 40" fill="none" xmlns="http://www.w3.org/2000/svg">
<path opacity="0.1" fill-rule="evenodd" clip-rule="evenodd" d="M20 40C31.0457 40 40 31.0457 40 20C40 8.9543 31.0457 0 20 0C8.9543 0 0 8.9543 0 20C0 31.0457 8.9543 40 20 40Z" fill="#F6F6F6"/>
<path d="M27.2681 15.0924L25.1088 25.2756C24.9459 25.9943 24.521 26.1732 23.9173 25.8346L20.6273 23.4102L19.0398 24.937C18.8641 25.1127 18.7171 25.2597 18.3785 25.2597L18.6149 21.9089L24.7127 16.3989C24.9778 16.1625 24.6552 16.0315 24.3006 16.2679L16.7623 21.0145L13.5169 19.9988C12.811 19.7784 12.7982 19.2928 13.6639 18.9543L26.3577 14.0639C26.9455 13.8435 27.4597 14.1949 27.2681 15.0924Z" fill="white"/>
</svg>
