<svg width="1440" height="542" viewBox="0 0 1440 542" fill="none" xmlns="http://www.w3.org/2000/svg">
<path d="M48.3154 102.907H44.6675V442.601H48.3154V102.907Z" fill="url(#paint0_linear_2_10117)"/>
<path d="M42.3694 103.09C42.3694 100.828 44.2298 98.9675 46.4915 98.9675C48.7532 98.9675 50.6137 100.828 50.6137 103.09C50.6137 105.351 48.7532 107.212 46.4915 107.212C44.2298 107.212 42.3694 105.388 42.3694 103.09Z" fill="url(#paint1_linear_2_10117)"/>
<path d="M109.929 72.8486H106.281V472.66H109.929V72.8486Z" fill="url(#paint2_linear_2_10117)"/>
<path d="M103.983 73.0308C103.983 70.7691 105.843 68.9087 108.105 68.9087C110.367 68.9087 112.227 70.7691 112.227 73.0308C112.227 75.2925 110.367 77.153 108.105 77.153C105.843 77.153 103.983 75.329 103.983 73.0308Z" fill="url(#paint3_linear_2_10117)"/>
<path d="M36.4963 35.8591H32.8484V509.613H36.4963V35.8591Z" fill="url(#paint4_linear_2_10117)"/>
<path d="M30.5503 36.0779C30.5503 33.8162 32.4107 31.9558 34.6724 31.9558C36.9341 31.9558 38.7946 33.8162 38.7946 36.0779C38.7946 38.3397 36.9341 40.2001 34.6724 40.2001C32.4107 40.1636 30.5503 38.3397 30.5503 36.0779Z" fill="url(#paint5_linear_2_10117)"/>
<path d="M58.3471 68.5444H54.6992V476.965H58.3471V68.5444Z" fill="url(#paint6_linear_2_10117)"/>
<path d="M52.4011 68.7266C52.4011 66.4649 54.2616 64.6045 56.5233 64.6045C58.785 64.6045 60.6454 66.4649 60.6454 68.7266C60.6454 70.9883 58.785 72.8488 56.5233 72.8488C54.2616 72.8488 52.4011 71.0248 52.4011 68.7266Z" fill="url(#paint7_linear_2_10117)"/>
<path d="M153.558 112.502H149.91V432.971H153.558V112.502Z" fill="url(#paint8_linear_2_10117)"/>
<path d="M147.648 112.721C147.648 110.459 149.509 108.598 151.77 108.598C154.032 108.598 155.892 110.459 155.892 112.721C155.892 114.982 154.032 116.843 151.77 116.843C149.472 116.806 147.648 114.982 147.648 112.721Z" fill="url(#paint9_linear_2_10117)"/>
<path d="M135.5 113.888H131.853V431.584H135.5V113.888Z" fill="url(#paint10_linear_2_10117)"/>
<path d="M133.677 118.228C135.953 118.228 137.799 116.383 137.799 114.106C137.799 111.83 135.953 109.984 133.677 109.984C131.4 109.984 129.554 111.83 129.554 114.106C129.554 116.383 131.4 118.228 133.677 118.228Z" fill="url(#paint11_linear_2_10117)"/>
<path d="M231.368 75.2935H227.72V470.18H231.368V75.2935Z" fill="url(#paint12_linear_2_10117)"/>
<path d="M225.422 75.512C225.422 73.2503 227.282 71.3899 229.544 71.3899C231.805 71.3899 233.666 73.2503 233.666 75.512C233.666 77.7737 231.805 79.6342 229.544 79.6342C227.246 79.5977 225.422 77.7737 225.422 75.512Z" fill="url(#paint13_linear_2_10117)"/>
<path d="M243.479 99.5515H239.831V445.884H243.479V99.5515Z" fill="url(#paint14_linear_2_10117)"/>
<path d="M237.569 99.7703C237.569 97.5086 239.43 95.6482 241.691 95.6482C243.953 95.6482 245.814 97.5086 245.814 99.7703C245.814 102.032 243.953 103.892 241.691 103.892C239.393 103.892 237.569 102.032 237.569 99.7703Z" fill="url(#paint15_linear_2_10117)"/>
<path d="M191.532 65.5896H187.885V479.883H191.532V65.5896Z" fill="url(#paint16_linear_2_10117)"/>
<path d="M185.586 65.8079C185.586 63.5462 187.447 61.6858 189.709 61.6858C191.97 61.6858 193.831 63.5462 193.831 65.8079C193.831 68.0696 191.97 69.9301 189.709 69.9301C187.447 69.9301 185.586 68.0696 185.586 65.8079Z" fill="url(#paint17_linear_2_10117)"/>
<path d="M303.268 3.93994H299.62V541.569H303.268V3.93994Z" fill="url(#paint18_linear_2_10117)"/>
<path d="M297.322 4.12214C297.322 1.86044 299.182 0 301.444 0C303.706 0 305.566 1.86044 305.566 4.12214C305.566 6.38385 303.706 8.24428 301.444 8.24428C299.182 8.24428 297.322 6.38385 297.322 4.12214Z" fill="url(#paint19_linear_2_10117)"/>
<path d="M315.999 34.1084H312.352V511.365H315.999V34.1084Z" fill="url(#paint20_linear_2_10117)"/>
<path d="M310.053 34.327C310.053 32.0653 311.914 30.2048 314.175 30.2048C316.437 30.2048 318.297 32.0653 318.297 34.327C318.297 36.5887 316.437 38.4491 314.175 38.4491C311.877 38.4126 310.053 36.5887 310.053 34.327Z" fill="url(#paint21_linear_2_10117)"/>
<path d="M347.59 18.5317H343.942V526.978H347.59V18.5317Z" fill="url(#paint22_linear_2_10117)"/>
<path d="M341.644 18.7137C341.644 16.452 343.504 14.5916 345.766 14.5916C348.028 14.5916 349.888 16.452 349.888 18.7137C349.888 20.9754 348.028 22.8358 345.766 22.8358C343.468 22.8358 341.644 21.0119 341.644 18.7137Z" fill="url(#paint23_linear_2_10117)"/>
<path d="M338.215 32.1018H334.567V513.407H338.215V32.1018Z" fill="url(#paint24_linear_2_10117)"/>
<path d="M332.269 32.284C332.269 30.0223 334.129 28.1619 336.391 28.1619C338.653 28.1619 340.513 30.0223 340.513 32.284C340.513 34.5457 338.653 36.4061 336.391 36.4061C334.129 36.4061 332.269 34.5822 332.269 32.284Z" fill="url(#paint25_linear_2_10117)"/>
<path d="M320.304 77.3721H316.656V468.136H320.304V77.3721Z" fill="url(#paint26_linear_2_10117)"/>
<path d="M314.358 77.5543C314.358 75.2926 316.218 73.4321 318.48 73.4321C320.742 73.4321 322.602 75.2926 322.602 77.5543C322.602 79.816 320.742 81.6764 318.48 81.6764C316.182 81.6764 314.358 79.8525 314.358 77.5543Z" fill="url(#paint27_linear_2_10117)"/>
<path d="M351.967 39.1421H348.32V506.33H351.967V39.1421Z" fill="url(#paint28_linear_2_10117)"/>
<path d="M350.144 43.4828C352.42 43.4828 354.266 41.6373 354.266 39.3607C354.266 37.0841 352.42 35.2385 350.144 35.2385C347.867 35.2385 346.021 37.0841 346.021 39.3607C346.021 41.6373 347.867 43.4828 350.144 43.4828Z" fill="url(#paint29_linear_2_10117)"/>
<path d="M360.212 104.731H356.564V440.741H360.212V104.731Z" fill="url(#paint30_linear_2_10117)"/>
<path d="M354.266 104.95C354.266 102.688 356.126 100.828 358.388 100.828C360.65 100.828 362.51 102.688 362.51 104.95C362.51 107.212 360.65 109.072 358.388 109.072C356.09 109.072 354.266 107.212 354.266 104.95Z" fill="url(#paint31_linear_2_10117)"/>
<path d="M437.584 63.1091H433.936V482.364H437.584V63.1091Z" fill="url(#paint32_linear_2_10117)"/>
<path d="M431.638 63.3277C431.638 61.066 433.499 59.2056 435.76 59.2056C438.022 59.2056 439.882 61.066 439.882 63.3277C439.882 65.5894 438.022 67.4499 435.76 67.4499C433.499 67.4499 431.638 65.5894 431.638 63.3277Z" fill="url(#paint33_linear_2_10117)"/>
<path d="M460.858 111.918H457.21V433.555H460.858V111.918Z" fill="url(#paint34_linear_2_10117)"/>
<path d="M454.912 112.137C454.912 109.876 456.772 108.015 459.034 108.015C461.295 108.015 463.156 109.876 463.156 112.137C463.156 114.399 461.295 116.259 459.034 116.259C456.772 116.223 454.912 114.399 454.912 112.137Z" fill="url(#paint35_linear_2_10117)"/>
<path d="M491.354 105.279H487.707V440.23H491.354V105.279Z" fill="url(#paint36_linear_2_10117)"/>
<path d="M489.53 109.583C491.807 109.583 493.653 107.738 493.653 105.461C493.653 103.185 491.807 101.339 489.53 101.339C487.254 101.339 485.408 103.185 485.408 105.461C485.408 107.738 487.254 109.583 489.53 109.583Z" fill="url(#paint37_linear_2_10117)"/>
<path d="M540.273 50.9614H536.625V494.511H540.273V50.9614Z" fill="url(#paint38_linear_2_10117)"/>
<path d="M534.327 51.1797C534.327 48.918 536.151 47.0576 538.449 47.0576C540.711 47.0576 542.571 48.918 542.571 51.1797C542.571 53.4415 540.711 55.3019 538.449 55.3019C536.187 55.2654 534.327 53.4415 534.327 51.1797Z" fill="url(#paint39_linear_2_10117)"/>
<path d="M586.383 5.3623H582.735V540.11H586.383V5.3623Z" fill="url(#paint40_linear_2_10117)"/>
<path d="M584.559 9.70302C586.835 9.70302 588.681 7.85748 588.681 5.58088C588.681 3.30429 586.835 1.45874 584.559 1.45874C582.282 1.45874 580.437 3.30429 580.437 5.58088C580.437 7.85748 582.282 9.70302 584.559 9.70302Z" fill="url(#paint41_linear_2_10117)"/>
<path d="M597.545 69.1643H593.897V476.308H597.545V69.1643Z" fill="url(#paint42_linear_2_10117)"/>
<path d="M591.599 69.3829C591.599 67.1212 593.46 65.2607 595.721 65.2607C597.983 65.2607 599.843 67.1212 599.843 69.3829C599.843 71.6446 597.983 73.505 595.721 73.505C593.46 73.4686 591.599 71.6446 591.599 69.3829Z" fill="url(#paint43_linear_2_10117)"/>
<path d="M607.686 36.7349H604.039V508.775H607.686V36.7349Z" fill="url(#paint44_linear_2_10117)"/>
<path d="M601.777 36.9168C601.777 34.6551 603.637 32.7947 605.899 32.7947C608.161 32.7947 610.021 34.6186 610.021 36.9168C610.021 39.1785 608.161 41.039 605.899 41.039C603.601 41.039 601.777 39.215 601.777 36.9168Z" fill="url(#paint45_linear_2_10117)"/>
<path d="M614.471 96.4514H610.823V449.059H614.471V96.4514Z" fill="url(#paint46_linear_2_10117)"/>
<path d="M608.525 96.6336C608.525 94.3719 610.386 92.5115 612.648 92.5115C614.909 92.5115 616.77 94.3719 616.77 96.6336C616.77 98.8953 614.909 100.756 612.648 100.756C610.386 100.756 608.525 98.9318 608.525 96.6336Z" fill="url(#paint47_linear_2_10117)"/>
<path d="M673.093 11.6738H669.445V533.836H673.093V11.6738Z" fill="url(#paint48_linear_2_10117)"/>
<path d="M671.269 15.9784C673.546 15.9784 675.392 14.1329 675.392 11.8563C675.392 9.57967 673.546 7.73413 671.269 7.73413C668.993 7.73413 667.147 9.57967 667.147 11.8563C667.147 14.1329 668.993 15.9784 671.269 15.9784Z" fill="url(#paint49_linear_2_10117)"/>
<path d="M684.913 83.8289H681.265V461.68H684.913V83.8289Z" fill="url(#paint50_linear_2_10117)"/>
<path d="M678.967 84.011C678.967 81.7493 680.827 79.8889 683.089 79.8889C685.35 79.8889 687.211 81.7493 687.211 84.011C687.211 86.2728 685.35 88.1332 683.089 88.1332C680.791 88.1332 678.967 86.2728 678.967 84.011Z" fill="url(#paint51_linear_2_10117)"/>
<path d="M731.132 109.583H727.484V435.926H731.132V109.583Z" fill="url(#paint52_linear_2_10117)"/>
<path d="M725.186 109.765C725.186 107.504 727.046 105.643 729.308 105.643C731.569 105.643 733.43 107.504 733.43 109.765C733.43 112.027 731.569 113.888 729.308 113.888C727.046 113.888 725.186 112.064 725.186 109.765Z" fill="url(#paint53_linear_2_10117)"/>
<path d="M686.153 5.39893H682.505V540.073H686.153V5.39893Z" fill="url(#paint54_linear_2_10117)"/>
<path d="M684.329 9.73964C686.606 9.73964 688.451 7.8941 688.451 5.61751C688.451 3.34091 686.606 1.49536 684.329 1.49536C682.052 1.49536 680.207 3.34091 680.207 5.61751C680.207 7.8941 682.052 9.73964 684.329 9.73964Z" fill="url(#paint55_linear_2_10117)"/>
<path d="M745.723 59.2056H742.075V486.303H745.723V59.2056Z" fill="url(#paint56_linear_2_10117)"/>
<path d="M743.9 63.5099C746.176 63.5099 748.022 61.6644 748.022 59.3878C748.022 57.1112 746.176 55.2656 743.9 55.2656C741.623 55.2656 739.777 57.1112 739.777 59.3878C739.777 61.6644 741.623 63.5099 743.9 63.5099Z" fill="url(#paint57_linear_2_10117)"/>
<path d="M800.916 52.7488H797.269V492.76H800.916V52.7488Z" fill="url(#paint58_linear_2_10117)"/>
<path d="M794.97 52.9307C794.97 50.669 796.831 48.8086 799.092 48.8086C801.354 48.8086 803.215 50.669 803.215 52.9307C803.215 55.1924 801.354 57.0529 799.092 57.0529C796.831 57.0529 794.97 55.2289 794.97 52.9307Z" fill="url(#paint59_linear_2_10117)"/>
<path d="M832.033 31.1533H828.385V514.283H832.033V31.1533Z" fill="url(#paint60_linear_2_10117)"/>
<path d="M826.123 31.3719C826.123 29.1102 827.984 27.2498 830.245 27.2498C832.507 27.2498 834.368 29.1102 834.368 31.3719C834.368 33.6336 832.507 35.494 830.245 35.494C827.947 35.494 826.123 33.6336 826.123 31.3719Z" fill="url(#paint61_linear_2_10117)"/>
<path d="M761.41 19.2976H757.762V526.138H761.41V19.2976Z" fill="url(#paint62_linear_2_10117)"/>
<path d="M755.463 19.5162C755.463 17.2545 757.324 15.394 759.586 15.394C761.847 15.394 763.708 17.2545 763.708 19.5162C763.708 21.7779 761.847 23.6383 759.586 23.6383C757.324 23.6383 755.463 21.7779 755.463 19.5162Z" fill="url(#paint63_linear_2_10117)"/>
<path d="M833.456 111.152H829.808V434.284H833.456V111.152Z" fill="url(#paint64_linear_2_10117)"/>
<path d="M827.546 111.37C827.546 109.109 829.406 107.248 831.668 107.248C833.93 107.248 835.79 109.109 835.79 111.37C835.79 113.632 833.93 115.493 831.668 115.493C829.37 115.493 827.546 113.632 827.546 111.37Z" fill="url(#paint65_linear_2_10117)"/>
<path d="M822.585 81.7136H818.937V463.759H822.585V81.7136Z" fill="url(#paint66_linear_2_10117)"/>
<path d="M816.675 81.9324C816.675 79.6707 818.536 77.8103 820.797 77.8103C823.059 77.8103 824.919 79.6707 824.919 81.9324C824.919 84.1941 823.059 86.0546 820.797 86.0546C818.499 86.0181 816.675 84.1941 816.675 81.9324Z" fill="url(#paint67_linear_2_10117)"/>
<path d="M896.2 17.7656H892.552V527.671H896.2V17.7656Z" fill="url(#paint68_linear_2_10117)"/>
<path d="M890.29 17.9844C890.29 15.7227 892.15 13.8623 894.412 13.8623C896.674 13.8623 898.534 15.7227 898.534 17.9844C898.534 20.2461 896.674 22.1066 894.412 22.1066C892.114 22.1066 890.29 20.2461 890.29 17.9844Z" fill="url(#paint69_linear_2_10117)"/>
<path d="M860.013 115.384H856.365V430.126H860.013V115.384Z" fill="url(#paint70_linear_2_10117)"/>
<path d="M854.066 115.566C854.066 113.304 855.927 111.444 858.189 111.444C860.45 111.444 862.311 113.304 862.311 115.566C862.311 117.828 860.45 119.688 858.189 119.688C855.927 119.688 854.066 117.864 854.066 115.566Z" fill="url(#paint71_linear_2_10117)"/>
<path d="M924.617 79.415H920.969V466.057H924.617V79.415Z" fill="url(#paint72_linear_2_10117)"/>
<path d="M918.671 79.6339C918.671 77.3722 920.531 75.5117 922.793 75.5117C925.055 75.5117 926.915 77.3722 926.915 79.6339C926.915 81.8956 925.055 83.756 922.793 83.756C920.531 83.756 918.671 81.8956 918.671 79.6339Z" fill="url(#paint73_linear_2_10117)"/>
<path d="M931.694 86.3103H928.046V459.2H931.694V86.3103Z" fill="url(#paint74_linear_2_10117)"/>
<path d="M925.784 86.4922C925.784 84.2305 927.645 82.3701 929.906 82.3701C932.168 82.3701 934.028 84.2305 934.028 86.4922C934.028 88.754 932.168 90.6144 929.906 90.6144C927.608 90.6144 925.784 88.7904 925.784 86.4922Z" fill="url(#paint75_linear_2_10117)"/>
<path d="M1007.75 35.9324H1004.1V509.541H1007.75V35.9324Z" fill="url(#paint76_linear_2_10117)"/>
<path d="M1005.93 40.2731C1008.21 40.2731 1010.05 38.4275 1010.05 36.151C1010.05 33.8744 1008.21 32.0288 1005.93 32.0288C1003.65 32.0288 1001.81 33.8744 1001.81 36.151C1001.81 38.4275 1003.65 40.2731 1005.93 40.2731Z" fill="url(#paint77_linear_2_10117)"/>
<path d="M962.227 7.36865H958.579V538.14H962.227V7.36865Z" fill="url(#paint78_linear_2_10117)"/>
<path d="M956.281 7.55109C956.281 5.28939 958.141 3.42896 960.403 3.42896C962.665 3.42896 964.525 5.28939 964.525 7.55109C964.525 9.8128 962.665 11.6732 960.403 11.6732C958.141 11.6732 956.281 9.84928 956.281 7.55109Z" fill="url(#paint79_linear_2_10117)"/>
<path d="M1004.1 14.7744H1000.46V530.699H1004.1V14.7744Z" fill="url(#paint80_linear_2_10117)"/>
<path d="M998.159 14.9928C998.159 12.731 1000.02 10.8706 1002.28 10.8706C1004.54 10.8706 1006.4 12.731 1006.4 14.9928C1006.4 17.2545 1004.54 19.1149 1002.28 19.1149C1000.02 19.1149 998.159 17.2545 998.159 14.9928Z" fill="url(#paint81_linear_2_10117)"/>
<path d="M1108.4 46.4014H1104.75V499.071H1108.4V46.4014Z" fill="url(#paint82_linear_2_10117)"/>
<path d="M1102.45 46.6199C1102.45 44.3582 1104.31 42.4978 1106.57 42.4978C1108.84 42.4978 1110.7 44.3582 1110.7 46.6199C1110.7 48.8816 1108.84 50.7421 1106.57 50.7421C1104.31 50.7056 1102.45 48.8816 1102.45 46.6199Z" fill="url(#paint83_linear_2_10117)"/>
<path d="M1103.95 81.6406H1100.3V463.832H1103.95V81.6406Z" fill="url(#paint84_linear_2_10117)"/>
<path d="M1098.04 81.8594C1098.04 79.5977 1099.9 77.7373 1102.16 77.7373C1104.42 77.7373 1106.28 79.5977 1106.28 81.8594C1106.28 84.1211 1104.42 85.9816 1102.16 85.9816C1099.9 85.9816 1098.04 84.1211 1098.04 81.8594Z" fill="url(#paint85_linear_2_10117)"/>
<path d="M1161.15 89.1912H1157.5V456.281H1161.15V89.1912Z" fill="url(#paint86_linear_2_10117)"/>
<path d="M1155.2 89.41C1155.2 87.1483 1157.03 85.2878 1159.32 85.2878C1161.59 85.2878 1163.45 87.1483 1163.45 89.41C1163.45 91.6717 1161.59 93.5321 1159.32 93.5321C1157.06 93.5321 1155.2 91.6717 1155.2 89.41Z" fill="url(#paint87_linear_2_10117)"/>
<path d="M1107.45 45.5991H1103.8V499.874H1107.45V45.5991Z" fill="url(#paint88_linear_2_10117)"/>
<path d="M1101.5 45.8175C1101.5 43.5558 1103.36 41.6953 1105.63 41.6953C1107.89 41.6953 1109.75 43.5558 1109.75 45.8175C1109.75 48.0792 1107.89 49.9396 1105.63 49.9396C1103.36 49.9396 1101.5 48.0792 1101.5 45.8175Z" fill="url(#paint89_linear_2_10117)"/>
<path d="M1128.61 57.0537H1124.96V488.383H1128.61V57.0537Z" fill="url(#paint90_linear_2_10117)"/>
<path d="M1122.66 57.2725C1122.66 55.0108 1124.52 53.1504 1126.78 53.1504C1129.05 53.1504 1130.91 54.9744 1130.91 57.2725C1130.91 59.5342 1129.05 61.3947 1126.78 61.3947C1124.49 61.3947 1122.66 59.5342 1122.66 57.2725Z" fill="url(#paint91_linear_2_10117)"/>
<path d="M1184.71 81.3486H1181.06V464.161H1184.71V81.3486Z" fill="url(#paint92_linear_2_10117)"/>
<path d="M1178.77 81.5308C1178.77 79.2691 1180.63 77.4087 1182.89 77.4087C1185.15 77.4087 1187.01 79.2691 1187.01 81.5308C1187.01 83.7925 1185.15 85.653 1182.89 85.653C1180.59 85.653 1178.77 83.829 1178.77 81.5308Z" fill="url(#paint93_linear_2_10117)"/>
<path d="M1164.39 76.5696H1160.75V468.903H1164.39V76.5696Z" fill="url(#paint94_linear_2_10117)"/>
<path d="M1158.45 76.7881C1158.45 74.5264 1160.31 72.666 1162.57 72.666C1164.83 72.666 1166.69 74.5264 1166.69 76.7881C1166.69 79.0499 1164.83 80.9103 1162.57 80.9103C1160.31 80.8738 1158.45 79.0499 1158.45 76.7881Z" fill="url(#paint95_linear_2_10117)"/>
<path d="M1188.4 7.77051H1184.75V537.703H1188.4V7.77051Z" fill="url(#paint96_linear_2_10117)"/>
<path d="M1182.45 7.98908C1182.45 5.72738 1184.31 3.86694 1186.57 3.86694C1188.84 3.86694 1190.7 5.72738 1190.7 7.98908C1190.7 10.2508 1188.84 12.1112 1186.57 12.1112C1184.31 12.0747 1182.45 10.2508 1182.45 7.98908Z" fill="url(#paint97_linear_2_10117)"/>
<path d="M1247.86 103.893H1244.21V441.616H1247.86V103.893Z" fill="url(#paint98_linear_2_10117)"/>
<path d="M1241.91 104.075C1241.91 101.813 1243.77 99.9524 1246.03 99.9524C1248.3 99.9524 1250.16 101.813 1250.16 104.075C1250.16 106.336 1248.3 108.197 1246.03 108.197C1243.74 108.197 1241.91 106.373 1241.91 104.075Z" fill="url(#paint99_linear_2_10117)"/>
<path d="M1319.72 112.976H1316.07V432.496H1319.72V112.976Z" fill="url(#paint100_linear_2_10117)"/>
<path d="M1313.81 113.194C1313.81 110.933 1315.67 109.072 1317.93 109.072C1320.2 109.072 1322.06 110.933 1322.06 113.194C1322.06 115.456 1320.2 117.317 1317.93 117.317C1315.64 117.28 1313.81 115.456 1313.81 113.194Z" fill="url(#paint101_linear_2_10117)"/>
<path d="M1326.84 18.8237H1323.19V526.65H1326.84V18.8237Z" fill="url(#paint102_linear_2_10117)"/>
<path d="M1320.89 19.0426C1320.89 16.7808 1322.75 14.9204 1325.01 14.9204C1327.27 14.9204 1329.13 16.7808 1329.13 19.0426C1329.13 21.3043 1327.27 23.1647 1325.01 23.1647C1322.75 23.1647 1320.89 21.3043 1320.89 19.0426Z" fill="url(#paint103_linear_2_10117)"/>
<path d="M1288.82 99.4055H1285.18V446.03H1288.82V99.4055Z" fill="url(#paint104_linear_2_10117)"/>
<path d="M1282.88 99.6243C1282.88 97.3626 1284.74 95.5022 1287 95.5022C1289.26 95.5022 1291.12 97.3626 1291.12 99.6243C1291.12 101.886 1289.26 103.746 1287 103.746C1284.7 103.746 1282.88 101.886 1282.88 99.6243Z" fill="url(#paint105_linear_2_10117)"/>
<path d="M1357.37 34.8743H1353.72V510.598H1357.37V34.8743Z" fill="url(#paint106_linear_2_10117)"/>
<path d="M1351.46 35.0928C1351.46 32.8311 1353.32 30.9707 1355.58 30.9707C1357.84 30.9707 1359.7 32.7947 1359.7 35.0928C1359.7 37.3545 1357.84 39.215 1355.58 39.215C1353.32 39.215 1351.46 37.3545 1351.46 35.0928Z" fill="url(#paint107_linear_2_10117)"/>
<path d="M1384.76 14.7744H1381.12V530.699H1384.76V14.7744Z" fill="url(#paint108_linear_2_10117)"/>
<path d="M1378.82 14.9928C1378.82 12.731 1380.68 10.8706 1382.94 10.8706C1385.2 10.8706 1387.06 12.731 1387.06 14.9928C1387.06 17.2545 1385.2 19.1149 1382.94 19.1149C1380.68 19.1149 1378.82 17.2545 1378.82 14.9928Z" fill="url(#paint109_linear_2_10117)"/>
<path d="M1374.33 74.345H1370.68V471.092H1374.33V74.345Z" fill="url(#paint110_linear_2_10117)"/>
<path d="M1368.42 74.5635C1368.42 72.3018 1370.28 70.4414 1372.54 70.4414C1374.81 70.4414 1376.67 72.3018 1376.67 74.5635C1376.67 76.8252 1374.81 78.6857 1372.54 78.6857C1370.25 78.6857 1368.42 76.8252 1368.42 74.5635Z" fill="url(#paint111_linear_2_10117)"/>
<path d="M1382.47 86.4553H1378.82V459.017H1382.47V86.4553Z" fill="url(#paint112_linear_2_10117)"/>
<path d="M1376.52 86.6739C1376.52 84.4122 1378.38 82.5518 1380.64 82.5518C1382.9 82.5518 1384.76 84.4122 1384.76 86.6739C1384.76 88.9356 1382.94 90.796 1380.64 90.796C1378.34 90.796 1376.52 88.9356 1376.52 86.6739Z" fill="url(#paint113_linear_2_10117)"/>
<defs>
<linearGradient id="paint0_linear_2_10117" x1="46.4991" y1="442.628" x2="46.4991" y2="99.6857" gradientUnits="userSpaceOnUse">
<stop stop-color="#0F1145" stop-opacity="0"/>
<stop offset="1" stop-color="white" stop-opacity="0.07"/>
</linearGradient>
<linearGradient id="paint1_linear_2_10117" x1="46.5089" y1="107.212" x2="46.5089" y2="98.8893" gradientUnits="userSpaceOnUse">
<stop stop-color="#0F1145" stop-opacity="0"/>
<stop offset="1" stop-color="white" stop-opacity="0.07"/>
</linearGradient>
<linearGradient id="paint2_linear_2_10117" x1="108.113" y1="472.691" x2="108.113" y2="69.0567" gradientUnits="userSpaceOnUse">
<stop stop-color="#0F1145" stop-opacity="0"/>
<stop offset="1" stop-color="white" stop-opacity="0.07"/>
</linearGradient>
<linearGradient id="paint3_linear_2_10117" x1="108.122" y1="77.1536" x2="108.122" y2="68.8305" gradientUnits="userSpaceOnUse">
<stop stop-color="#0F1145" stop-opacity="0"/>
<stop offset="1" stop-color="white" stop-opacity="0.07"/>
</linearGradient>
<linearGradient id="paint4_linear_2_10117" x1="34.68" y1="509.651" x2="34.68" y2="31.3658" gradientUnits="userSpaceOnUse">
<stop stop-color="#0F1145" stop-opacity="0"/>
<stop offset="1" stop-color="white" stop-opacity="0.07"/>
</linearGradient>
<linearGradient id="paint5_linear_2_10117" x1="34.6898" y1="40.2007" x2="34.6898" y2="31.8776" gradientUnits="userSpaceOnUse">
<stop stop-color="#0F1145" stop-opacity="0"/>
<stop offset="1" stop-color="white" stop-opacity="0.07"/>
</linearGradient>
<linearGradient id="paint6_linear_2_10117" x1="56.5308" y1="476.997" x2="56.5308" y2="64.6708" gradientUnits="userSpaceOnUse">
<stop stop-color="#0F1145" stop-opacity="0"/>
<stop offset="1" stop-color="white" stop-opacity="0.07"/>
</linearGradient>
<linearGradient id="paint7_linear_2_10117" x1="56.5406" y1="72.8494" x2="56.5406" y2="64.5263" gradientUnits="userSpaceOnUse">
<stop stop-color="#0F1145" stop-opacity="0"/>
<stop offset="1" stop-color="white" stop-opacity="0.07"/>
</linearGradient>
<linearGradient id="paint8_linear_2_10117" x1="151.742" y1="432.996" x2="151.742" y2="109.462" gradientUnits="userSpaceOnUse">
<stop stop-color="#0F1145" stop-opacity="0"/>
<stop offset="1" stop-color="white" stop-opacity="0.07"/>
</linearGradient>
<linearGradient id="paint9_linear_2_10117" x1="151.788" y1="116.843" x2="151.788" y2="108.52" gradientUnits="userSpaceOnUse">
<stop stop-color="#0F1145" stop-opacity="0"/>
<stop offset="1" stop-color="white" stop-opacity="0.07"/>
</linearGradient>
<linearGradient id="paint10_linear_2_10117" x1="133.684" y1="431.609" x2="133.684" y2="110.875" gradientUnits="userSpaceOnUse">
<stop stop-color="#0F1145" stop-opacity="0"/>
<stop offset="1" stop-color="white" stop-opacity="0.07"/>
</linearGradient>
<linearGradient id="paint11_linear_2_10117" x1="133.694" y1="118.229" x2="133.694" y2="109.906" gradientUnits="userSpaceOnUse">
<stop stop-color="#0F1145" stop-opacity="0"/>
<stop offset="1" stop-color="white" stop-opacity="0.07"/>
</linearGradient>
<linearGradient id="paint12_linear_2_10117" x1="229.551" y1="470.211" x2="229.551" y2="71.5482" gradientUnits="userSpaceOnUse">
<stop stop-color="#0F1145" stop-opacity="0"/>
<stop offset="1" stop-color="white" stop-opacity="0.07"/>
</linearGradient>
<linearGradient id="paint13_linear_2_10117" x1="229.561" y1="79.6348" x2="229.561" y2="71.3117" gradientUnits="userSpaceOnUse">
<stop stop-color="#0F1145" stop-opacity="0"/>
<stop offset="1" stop-color="white" stop-opacity="0.07"/>
</linearGradient>
<linearGradient id="paint14_linear_2_10117" x1="241.663" y1="445.912" x2="241.663" y2="96.2667" gradientUnits="userSpaceOnUse">
<stop stop-color="#0F1145" stop-opacity="0"/>
<stop offset="1" stop-color="white" stop-opacity="0.07"/>
</linearGradient>
<linearGradient id="paint15_linear_2_10117" x1="241.709" y1="103.893" x2="241.709" y2="95.57" gradientUnits="userSpaceOnUse">
<stop stop-color="#0F1145" stop-opacity="0"/>
<stop offset="1" stop-color="white" stop-opacity="0.07"/>
</linearGradient>
<linearGradient id="paint16_linear_2_10117" x1="189.716" y1="479.916" x2="189.716" y2="61.6603" gradientUnits="userSpaceOnUse">
<stop stop-color="#0F1145" stop-opacity="0"/>
<stop offset="1" stop-color="white" stop-opacity="0.07"/>
</linearGradient>
<linearGradient id="paint17_linear_2_10117" x1="189.726" y1="69.9307" x2="189.726" y2="61.6076" gradientUnits="userSpaceOnUse">
<stop stop-color="#0F1145" stop-opacity="0"/>
<stop offset="1" stop-color="white" stop-opacity="0.07"/>
</linearGradient>
<linearGradient id="paint18_linear_2_10117" x1="301.452" y1="541.612" x2="301.452" y2="-1.15917" gradientUnits="userSpaceOnUse">
<stop stop-color="#0F1145" stop-opacity="0"/>
<stop offset="1" stop-color="white" stop-opacity="0.07"/>
</linearGradient>
<linearGradient id="paint19_linear_2_10117" x1="301.462" y1="8.24493" x2="301.462" y2="-0.0781923" gradientUnits="userSpaceOnUse">
<stop stop-color="#0F1145" stop-opacity="0"/>
<stop offset="1" stop-color="white" stop-opacity="0.07"/>
</linearGradient>
<linearGradient id="paint20_linear_2_10117" x1="314.183" y1="511.402" x2="314.183" y2="29.5819" gradientUnits="userSpaceOnUse">
<stop stop-color="#0F1145" stop-opacity="0"/>
<stop offset="1" stop-color="white" stop-opacity="0.07"/>
</linearGradient>
<linearGradient id="paint21_linear_2_10117" x1="314.193" y1="38.4498" x2="314.193" y2="30.1266" gradientUnits="userSpaceOnUse">
<stop stop-color="#0F1145" stop-opacity="0"/>
<stop offset="1" stop-color="white" stop-opacity="0.07"/>
</linearGradient>
<linearGradient id="paint22_linear_2_10117" x1="345.774" y1="527.018" x2="345.774" y2="13.7094" gradientUnits="userSpaceOnUse">
<stop stop-color="#0F1145" stop-opacity="0"/>
<stop offset="1" stop-color="white" stop-opacity="0.07"/>
</linearGradient>
<linearGradient id="paint23_linear_2_10117" x1="345.783" y1="22.8365" x2="345.783" y2="14.5134" gradientUnits="userSpaceOnUse">
<stop stop-color="#0F1145" stop-opacity="0"/>
<stop offset="1" stop-color="white" stop-opacity="0.07"/>
</linearGradient>
<linearGradient id="paint24_linear_2_10117" x1="336.399" y1="513.445" x2="336.399" y2="27.5369" gradientUnits="userSpaceOnUse">
<stop stop-color="#0F1145" stop-opacity="0"/>
<stop offset="1" stop-color="white" stop-opacity="0.07"/>
</linearGradient>
<linearGradient id="paint25_linear_2_10117" x1="336.408" y1="36.4068" x2="336.408" y2="28.0837" gradientUnits="userSpaceOnUse">
<stop stop-color="#0F1145" stop-opacity="0"/>
<stop offset="1" stop-color="white" stop-opacity="0.07"/>
</linearGradient>
<linearGradient id="paint26_linear_2_10117" x1="318.487" y1="468.167" x2="318.487" y2="73.6659" gradientUnits="userSpaceOnUse">
<stop stop-color="#0F1145" stop-opacity="0"/>
<stop offset="1" stop-color="white" stop-opacity="0.07"/>
</linearGradient>
<linearGradient id="paint27_linear_2_10117" x1="318.497" y1="81.6771" x2="318.497" y2="73.3539" gradientUnits="userSpaceOnUse">
<stop stop-color="#0F1145" stop-opacity="0"/>
<stop offset="1" stop-color="white" stop-opacity="0.07"/>
</linearGradient>
<linearGradient id="paint28_linear_2_10117" x1="350.151" y1="506.367" x2="350.151" y2="34.7111" gradientUnits="userSpaceOnUse">
<stop stop-color="#0F1145" stop-opacity="0"/>
<stop offset="1" stop-color="white" stop-opacity="0.07"/>
</linearGradient>
<linearGradient id="paint29_linear_2_10117" x1="350.161" y1="43.4835" x2="350.161" y2="35.1603" gradientUnits="userSpaceOnUse">
<stop stop-color="#0F1145" stop-opacity="0"/>
<stop offset="1" stop-color="white" stop-opacity="0.07"/>
</linearGradient>
<linearGradient id="paint30_linear_2_10117" x1="358.396" y1="440.767" x2="358.396" y2="101.545" gradientUnits="userSpaceOnUse">
<stop stop-color="#0F1145" stop-opacity="0"/>
<stop offset="1" stop-color="white" stop-opacity="0.07"/>
</linearGradient>
<linearGradient id="paint31_linear_2_10117" x1="358.405" y1="109.073" x2="358.405" y2="100.75" gradientUnits="userSpaceOnUse">
<stop stop-color="#0F1145" stop-opacity="0"/>
<stop offset="1" stop-color="white" stop-opacity="0.07"/>
</linearGradient>
<linearGradient id="paint32_linear_2_10117" x1="435.768" y1="482.397" x2="435.768" y2="59.1327" gradientUnits="userSpaceOnUse">
<stop stop-color="#0F1145" stop-opacity="0"/>
<stop offset="1" stop-color="white" stop-opacity="0.07"/>
</linearGradient>
<linearGradient id="paint33_linear_2_10117" x1="435.778" y1="67.4505" x2="435.778" y2="59.1274" gradientUnits="userSpaceOnUse">
<stop stop-color="#0F1145" stop-opacity="0"/>
<stop offset="1" stop-color="white" stop-opacity="0.07"/>
</linearGradient>
<linearGradient id="paint34_linear_2_10117" x1="459.041" y1="433.58" x2="459.041" y2="108.868" gradientUnits="userSpaceOnUse">
<stop stop-color="#0F1145" stop-opacity="0"/>
<stop offset="1" stop-color="white" stop-opacity="0.07"/>
</linearGradient>
<linearGradient id="paint35_linear_2_10117" x1="459.051" y1="116.26" x2="459.051" y2="107.937" gradientUnits="userSpaceOnUse">
<stop stop-color="#0F1145" stop-opacity="0"/>
<stop offset="1" stop-color="white" stop-opacity="0.07"/>
</linearGradient>
<linearGradient id="paint36_linear_2_10117" x1="489.538" y1="440.257" x2="489.538" y2="102.102" gradientUnits="userSpaceOnUse">
<stop stop-color="#0F1145" stop-opacity="0"/>
<stop offset="1" stop-color="white" stop-opacity="0.07"/>
</linearGradient>
<linearGradient id="paint37_linear_2_10117" x1="489.548" y1="109.584" x2="489.548" y2="101.261" gradientUnits="userSpaceOnUse">
<stop stop-color="#0F1145" stop-opacity="0"/>
<stop offset="1" stop-color="white" stop-opacity="0.07"/>
</linearGradient>
<linearGradient id="paint38_linear_2_10117" x1="538.457" y1="494.546" x2="538.457" y2="46.7546" gradientUnits="userSpaceOnUse">
<stop stop-color="#0F1145" stop-opacity="0"/>
<stop offset="1" stop-color="white" stop-opacity="0.07"/>
</linearGradient>
<linearGradient id="paint39_linear_2_10117" x1="538.466" y1="55.3025" x2="538.466" y2="46.9794" gradientUnits="userSpaceOnUse">
<stop stop-color="#0F1145" stop-opacity="0"/>
<stop offset="1" stop-color="white" stop-opacity="0.07"/>
</linearGradient>
<linearGradient id="paint40_linear_2_10117" x1="584.566" y1="540.152" x2="584.566" y2="0.29053" gradientUnits="userSpaceOnUse">
<stop stop-color="#0F1145" stop-opacity="0"/>
<stop offset="1" stop-color="white" stop-opacity="0.07"/>
</linearGradient>
<linearGradient id="paint41_linear_2_10117" x1="584.576" y1="9.70367" x2="584.576" y2="1.38055" gradientUnits="userSpaceOnUse">
<stop stop-color="#0F1145" stop-opacity="0"/>
<stop offset="1" stop-color="white" stop-opacity="0.07"/>
</linearGradient>
<linearGradient id="paint42_linear_2_10117" x1="595.729" y1="476.34" x2="595.729" y2="65.3028" gradientUnits="userSpaceOnUse">
<stop stop-color="#0F1145" stop-opacity="0"/>
<stop offset="1" stop-color="white" stop-opacity="0.07"/>
</linearGradient>
<linearGradient id="paint43_linear_2_10117" x1="595.739" y1="73.5057" x2="595.739" y2="65.1825" gradientUnits="userSpaceOnUse">
<stop stop-color="#0F1145" stop-opacity="0"/>
<stop offset="1" stop-color="white" stop-opacity="0.07"/>
</linearGradient>
<linearGradient id="paint44_linear_2_10117" x1="605.87" y1="508.812" x2="605.87" y2="32.2578" gradientUnits="userSpaceOnUse">
<stop stop-color="#0F1145" stop-opacity="0"/>
<stop offset="1" stop-color="white" stop-opacity="0.07"/>
</linearGradient>
<linearGradient id="paint45_linear_2_10117" x1="605.916" y1="41.0396" x2="605.916" y2="32.7165" gradientUnits="userSpaceOnUse">
<stop stop-color="#0F1145" stop-opacity="0"/>
<stop offset="1" stop-color="white" stop-opacity="0.07"/>
</linearGradient>
<linearGradient id="paint46_linear_2_10117" x1="612.655" y1="449.086" x2="612.655" y2="93.1071" gradientUnits="userSpaceOnUse">
<stop stop-color="#0F1145" stop-opacity="0"/>
<stop offset="1" stop-color="white" stop-opacity="0.07"/>
</linearGradient>
<linearGradient id="paint47_linear_2_10117" x1="612.665" y1="100.756" x2="612.665" y2="92.4333" gradientUnits="userSpaceOnUse">
<stop stop-color="#0F1145" stop-opacity="0"/>
<stop offset="1" stop-color="white" stop-opacity="0.07"/>
</linearGradient>
<linearGradient id="paint48_linear_2_10117" x1="671.277" y1="533.877" x2="671.277" y2="6.72142" gradientUnits="userSpaceOnUse">
<stop stop-color="#0F1145" stop-opacity="0"/>
<stop offset="1" stop-color="white" stop-opacity="0.07"/>
</linearGradient>
<linearGradient id="paint49_linear_2_10117" x1="671.287" y1="15.9791" x2="671.287" y2="7.65594" gradientUnits="userSpaceOnUse">
<stop stop-color="#0F1145" stop-opacity="0"/>
<stop offset="1" stop-color="white" stop-opacity="0.07"/>
</linearGradient>
<linearGradient id="paint50_linear_2_10117" x1="683.096" y1="461.709" x2="683.096" y2="80.2452" gradientUnits="userSpaceOnUse">
<stop stop-color="#0F1145" stop-opacity="0"/>
<stop offset="1" stop-color="white" stop-opacity="0.07"/>
</linearGradient>
<linearGradient id="paint51_linear_2_10117" x1="683.106" y1="88.1338" x2="683.106" y2="79.8107" gradientUnits="userSpaceOnUse">
<stop stop-color="#0F1145" stop-opacity="0"/>
<stop offset="1" stop-color="white" stop-opacity="0.07"/>
</linearGradient>
<linearGradient id="paint52_linear_2_10117" x1="729.315" y1="435.951" x2="729.315" y2="106.488" gradientUnits="userSpaceOnUse">
<stop stop-color="#0F1145" stop-opacity="0"/>
<stop offset="1" stop-color="white" stop-opacity="0.07"/>
</linearGradient>
<linearGradient id="paint53_linear_2_10117" x1="729.325" y1="113.888" x2="729.325" y2="105.565" gradientUnits="userSpaceOnUse">
<stop stop-color="#0F1145" stop-opacity="0"/>
<stop offset="1" stop-color="white" stop-opacity="0.07"/>
</linearGradient>
<linearGradient id="paint54_linear_2_10117" x1="684.337" y1="540.116" x2="684.337" y2="0.327842" gradientUnits="userSpaceOnUse">
<stop stop-color="#0F1145" stop-opacity="0"/>
<stop offset="1" stop-color="white" stop-opacity="0.07"/>
</linearGradient>
<linearGradient id="paint55_linear_2_10117" x1="684.346" y1="9.7403" x2="684.346" y2="1.41717" gradientUnits="userSpaceOnUse">
<stop stop-color="#0F1145" stop-opacity="0"/>
<stop offset="1" stop-color="white" stop-opacity="0.07"/>
</linearGradient>
<linearGradient id="paint56_linear_2_10117" x1="743.907" y1="486.337" x2="743.907" y2="55.1548" gradientUnits="userSpaceOnUse">
<stop stop-color="#0F1145" stop-opacity="0"/>
<stop offset="1" stop-color="white" stop-opacity="0.07"/>
</linearGradient>
<linearGradient id="paint57_linear_2_10117" x1="743.917" y1="63.5106" x2="743.917" y2="55.1874" gradientUnits="userSpaceOnUse">
<stop stop-color="#0F1145" stop-opacity="0"/>
<stop offset="1" stop-color="white" stop-opacity="0.07"/>
</linearGradient>
<linearGradient id="paint58_linear_2_10117" x1="799.1" y1="492.795" x2="799.1" y2="48.5755" gradientUnits="userSpaceOnUse">
<stop stop-color="#0F1145" stop-opacity="0"/>
<stop offset="1" stop-color="white" stop-opacity="0.07"/>
</linearGradient>
<linearGradient id="paint59_linear_2_10117" x1="799.11" y1="57.0535" x2="799.11" y2="48.7304" gradientUnits="userSpaceOnUse">
<stop stop-color="#0F1145" stop-opacity="0"/>
<stop offset="1" stop-color="white" stop-opacity="0.07"/>
</linearGradient>
<linearGradient id="paint60_linear_2_10117" x1="830.217" y1="514.321" x2="830.217" y2="26.5711" gradientUnits="userSpaceOnUse">
<stop stop-color="#0F1145" stop-opacity="0"/>
<stop offset="1" stop-color="white" stop-opacity="0.07"/>
</linearGradient>
<linearGradient id="paint61_linear_2_10117" x1="830.263" y1="35.4947" x2="830.263" y2="27.1716" gradientUnits="userSpaceOnUse">
<stop stop-color="#0F1145" stop-opacity="0"/>
<stop offset="1" stop-color="white" stop-opacity="0.07"/>
</linearGradient>
<linearGradient id="paint62_linear_2_10117" x1="759.593" y1="526.179" x2="759.593" y2="14.4905" gradientUnits="userSpaceOnUse">
<stop stop-color="#0F1145" stop-opacity="0"/>
<stop offset="1" stop-color="white" stop-opacity="0.07"/>
</linearGradient>
<linearGradient id="paint63_linear_2_10117" x1="759.603" y1="23.639" x2="759.603" y2="15.3159" gradientUnits="userSpaceOnUse">
<stop stop-color="#0F1145" stop-opacity="0"/>
<stop offset="1" stop-color="white" stop-opacity="0.07"/>
</linearGradient>
<linearGradient id="paint64_linear_2_10117" x1="831.639" y1="434.309" x2="831.639" y2="108.087" gradientUnits="userSpaceOnUse">
<stop stop-color="#0F1145" stop-opacity="0"/>
<stop offset="1" stop-color="white" stop-opacity="0.07"/>
</linearGradient>
<linearGradient id="paint65_linear_2_10117" x1="831.685" y1="115.493" x2="831.685" y2="107.17" gradientUnits="userSpaceOnUse">
<stop stop-color="#0F1145" stop-opacity="0"/>
<stop offset="1" stop-color="white" stop-opacity="0.07"/>
</linearGradient>
<linearGradient id="paint66_linear_2_10117" x1="820.769" y1="463.79" x2="820.769" y2="78.0901" gradientUnits="userSpaceOnUse">
<stop stop-color="#0F1145" stop-opacity="0"/>
<stop offset="1" stop-color="white" stop-opacity="0.07"/>
</linearGradient>
<linearGradient id="paint67_linear_2_10117" x1="820.815" y1="86.0552" x2="820.815" y2="77.7321" gradientUnits="userSpaceOnUse">
<stop stop-color="#0F1145" stop-opacity="0"/>
<stop offset="1" stop-color="white" stop-opacity="0.07"/>
</linearGradient>
<linearGradient id="paint68_linear_2_10117" x1="894.383" y1="527.711" x2="894.383" y2="12.9295" gradientUnits="userSpaceOnUse">
<stop stop-color="#0F1145" stop-opacity="0"/>
<stop offset="1" stop-color="white" stop-opacity="0.07"/>
</linearGradient>
<linearGradient id="paint69_linear_2_10117" x1="894.43" y1="22.1072" x2="894.43" y2="13.7841" gradientUnits="userSpaceOnUse">
<stop stop-color="#0F1145" stop-opacity="0"/>
<stop offset="1" stop-color="white" stop-opacity="0.07"/>
</linearGradient>
<linearGradient id="paint70_linear_2_10117" x1="858.196" y1="430.151" x2="858.196" y2="112.399" gradientUnits="userSpaceOnUse">
<stop stop-color="#0F1145" stop-opacity="0"/>
<stop offset="1" stop-color="white" stop-opacity="0.07"/>
</linearGradient>
<linearGradient id="paint71_linear_2_10117" x1="858.206" y1="119.689" x2="858.206" y2="111.366" gradientUnits="userSpaceOnUse">
<stop stop-color="#0F1145" stop-opacity="0"/>
<stop offset="1" stop-color="white" stop-opacity="0.07"/>
</linearGradient>
<linearGradient id="paint72_linear_2_10117" x1="922.801" y1="466.088" x2="922.801" y2="75.748" gradientUnits="userSpaceOnUse">
<stop stop-color="#0F1145" stop-opacity="0"/>
<stop offset="1" stop-color="white" stop-opacity="0.07"/>
</linearGradient>
<linearGradient id="paint73_linear_2_10117" x1="922.81" y1="83.7566" x2="922.81" y2="75.4335" gradientUnits="userSpaceOnUse">
<stop stop-color="#0F1145" stop-opacity="0"/>
<stop offset="1" stop-color="white" stop-opacity="0.07"/>
</linearGradient>
<linearGradient id="paint74_linear_2_10117" x1="929.878" y1="459.229" x2="929.878" y2="82.7737" gradientUnits="userSpaceOnUse">
<stop stop-color="#0F1145" stop-opacity="0"/>
<stop offset="1" stop-color="white" stop-opacity="0.07"/>
</linearGradient>
<linearGradient id="paint75_linear_2_10117" x1="929.924" y1="90.615" x2="929.924" y2="82.2919" gradientUnits="userSpaceOnUse">
<stop stop-color="#0F1145" stop-opacity="0"/>
<stop offset="1" stop-color="white" stop-opacity="0.07"/>
</linearGradient>
<linearGradient id="paint76_linear_2_10117" x1="1005.94" y1="509.578" x2="1005.94" y2="31.4405" gradientUnits="userSpaceOnUse">
<stop stop-color="#0F1145" stop-opacity="0"/>
<stop offset="1" stop-color="white" stop-opacity="0.07"/>
</linearGradient>
<linearGradient id="paint77_linear_2_10117" x1="1005.95" y1="40.2737" x2="1005.95" y2="31.9506" gradientUnits="userSpaceOnUse">
<stop stop-color="#0F1145" stop-opacity="0"/>
<stop offset="1" stop-color="white" stop-opacity="0.07"/>
</linearGradient>
<linearGradient id="paint78_linear_2_10117" x1="960.411" y1="538.182" x2="960.411" y2="2.33459" gradientUnits="userSpaceOnUse">
<stop stop-color="#0F1145" stop-opacity="0"/>
<stop offset="1" stop-color="white" stop-opacity="0.07"/>
</linearGradient>
<linearGradient id="paint79_linear_2_10117" x1="960.42" y1="11.6739" x2="960.42" y2="3.35076" gradientUnits="userSpaceOnUse">
<stop stop-color="#0F1145" stop-opacity="0"/>
<stop offset="1" stop-color="white" stop-opacity="0.07"/>
</linearGradient>
<linearGradient id="paint80_linear_2_10117" x1="1002.29" y1="530.739" x2="1002.29" y2="9.88117" gradientUnits="userSpaceOnUse">
<stop stop-color="#0F1145" stop-opacity="0"/>
<stop offset="1" stop-color="white" stop-opacity="0.07"/>
</linearGradient>
<linearGradient id="paint81_linear_2_10117" x1="1002.3" y1="19.1155" x2="1002.3" y2="10.7924" gradientUnits="userSpaceOnUse">
<stop stop-color="#0F1145" stop-opacity="0"/>
<stop offset="1" stop-color="white" stop-opacity="0.07"/>
</linearGradient>
<linearGradient id="paint82_linear_2_10117" x1="1106.58" y1="499.107" x2="1106.58" y2="42.1081" gradientUnits="userSpaceOnUse">
<stop stop-color="#0F1145" stop-opacity="0"/>
<stop offset="1" stop-color="white" stop-opacity="0.07"/>
</linearGradient>
<linearGradient id="paint83_linear_2_10117" x1="1106.59" y1="50.7427" x2="1106.59" y2="42.4196" gradientUnits="userSpaceOnUse">
<stop stop-color="#0F1145" stop-opacity="0"/>
<stop offset="1" stop-color="white" stop-opacity="0.07"/>
</linearGradient>
<linearGradient id="paint84_linear_2_10117" x1="1102.13" y1="463.863" x2="1102.13" y2="78.0158" gradientUnits="userSpaceOnUse">
<stop stop-color="#0F1145" stop-opacity="0"/>
<stop offset="1" stop-color="white" stop-opacity="0.07"/>
</linearGradient>
<linearGradient id="paint85_linear_2_10117" x1="1102.18" y1="85.9822" x2="1102.18" y2="77.6591" gradientUnits="userSpaceOnUse">
<stop stop-color="#0F1145" stop-opacity="0"/>
<stop offset="1" stop-color="white" stop-opacity="0.07"/>
</linearGradient>
<linearGradient id="paint86_linear_2_10117" x1="1159.33" y1="456.31" x2="1159.33" y2="85.7095" gradientUnits="userSpaceOnUse">
<stop stop-color="#0F1145" stop-opacity="0"/>
<stop offset="1" stop-color="white" stop-opacity="0.07"/>
</linearGradient>
<linearGradient id="paint87_linear_2_10117" x1="1159.34" y1="93.5328" x2="1159.34" y2="85.2096" gradientUnits="userSpaceOnUse">
<stop stop-color="#0F1145" stop-opacity="0"/>
<stop offset="1" stop-color="white" stop-opacity="0.07"/>
</linearGradient>
<linearGradient id="paint88_linear_2_10117" x1="1105.63" y1="499.91" x2="1105.63" y2="41.2906" gradientUnits="userSpaceOnUse">
<stop stop-color="#0F1145" stop-opacity="0"/>
<stop offset="1" stop-color="white" stop-opacity="0.07"/>
</linearGradient>
<linearGradient id="paint89_linear_2_10117" x1="1105.64" y1="49.9402" x2="1105.64" y2="41.6171" gradientUnits="userSpaceOnUse">
<stop stop-color="#0F1145" stop-opacity="0"/>
<stop offset="1" stop-color="white" stop-opacity="0.07"/>
</linearGradient>
<linearGradient id="paint90_linear_2_10117" x1="1126.79" y1="488.417" x2="1126.79" y2="52.9628" gradientUnits="userSpaceOnUse">
<stop stop-color="#0F1145" stop-opacity="0"/>
<stop offset="1" stop-color="white" stop-opacity="0.07"/>
</linearGradient>
<linearGradient id="paint91_linear_2_10117" x1="1126.8" y1="61.3953" x2="1126.8" y2="53.0722" gradientUnits="userSpaceOnUse">
<stop stop-color="#0F1145" stop-opacity="0"/>
<stop offset="1" stop-color="white" stop-opacity="0.07"/>
</linearGradient>
<linearGradient id="paint92_linear_2_10117" x1="1182.9" y1="464.191" x2="1182.9" y2="77.7179" gradientUnits="userSpaceOnUse">
<stop stop-color="#0F1145" stop-opacity="0"/>
<stop offset="1" stop-color="white" stop-opacity="0.07"/>
</linearGradient>
<linearGradient id="paint93_linear_2_10117" x1="1182.91" y1="85.6536" x2="1182.91" y2="77.3305" gradientUnits="userSpaceOnUse">
<stop stop-color="#0F1145" stop-opacity="0"/>
<stop offset="1" stop-color="white" stop-opacity="0.07"/>
</linearGradient>
<linearGradient id="paint94_linear_2_10117" x1="1162.58" y1="468.934" x2="1162.58" y2="72.8485" gradientUnits="userSpaceOnUse">
<stop stop-color="#0F1145" stop-opacity="0"/>
<stop offset="1" stop-color="white" stop-opacity="0.07"/>
</linearGradient>
<linearGradient id="paint95_linear_2_10117" x1="1162.59" y1="80.9109" x2="1162.59" y2="72.5878" gradientUnits="userSpaceOnUse">
<stop stop-color="#0F1145" stop-opacity="0"/>
<stop offset="1" stop-color="white" stop-opacity="0.07"/>
</linearGradient>
<linearGradient id="paint96_linear_2_10117" x1="1186.58" y1="537.745" x2="1186.58" y2="2.7444" gradientUnits="userSpaceOnUse">
<stop stop-color="#0F1145" stop-opacity="0"/>
<stop offset="1" stop-color="white" stop-opacity="0.07"/>
</linearGradient>
<linearGradient id="paint97_linear_2_10117" x1="1186.59" y1="12.1119" x2="1186.59" y2="3.78875" gradientUnits="userSpaceOnUse">
<stop stop-color="#0F1145" stop-opacity="0"/>
<stop offset="1" stop-color="white" stop-opacity="0.07"/>
</linearGradient>
<linearGradient id="paint98_linear_2_10117" x1="1246.04" y1="441.643" x2="1246.04" y2="100.689" gradientUnits="userSpaceOnUse">
<stop stop-color="#0F1145" stop-opacity="0"/>
<stop offset="1" stop-color="white" stop-opacity="0.07"/>
</linearGradient>
<linearGradient id="paint99_linear_2_10117" x1="1246.05" y1="108.197" x2="1246.05" y2="99.8742" gradientUnits="userSpaceOnUse">
<stop stop-color="#0F1145" stop-opacity="0"/>
<stop offset="1" stop-color="white" stop-opacity="0.07"/>
</linearGradient>
<linearGradient id="paint100_linear_2_10117" x1="1317.91" y1="432.521" x2="1317.91" y2="109.945" gradientUnits="userSpaceOnUse">
<stop stop-color="#0F1145" stop-opacity="0"/>
<stop offset="1" stop-color="white" stop-opacity="0.07"/>
</linearGradient>
<linearGradient id="paint101_linear_2_10117" x1="1317.95" y1="117.317" x2="1317.95" y2="108.994" gradientUnits="userSpaceOnUse">
<stop stop-color="#0F1145" stop-opacity="0"/>
<stop offset="1" stop-color="white" stop-opacity="0.07"/>
</linearGradient>
<linearGradient id="paint102_linear_2_10117" x1="1325.02" y1="526.69" x2="1325.02" y2="14.0073" gradientUnits="userSpaceOnUse">
<stop stop-color="#0F1145" stop-opacity="0"/>
<stop offset="1" stop-color="white" stop-opacity="0.07"/>
</linearGradient>
<linearGradient id="paint103_linear_2_10117" x1="1325.03" y1="23.1653" x2="1325.03" y2="14.8422" gradientUnits="userSpaceOnUse">
<stop stop-color="#0F1145" stop-opacity="0"/>
<stop offset="1" stop-color="white" stop-opacity="0.07"/>
</linearGradient>
<linearGradient id="paint104_linear_2_10117" x1="1287.01" y1="446.058" x2="1287.01" y2="96.118" gradientUnits="userSpaceOnUse">
<stop stop-color="#0F1145" stop-opacity="0"/>
<stop offset="1" stop-color="white" stop-opacity="0.07"/>
</linearGradient>
<linearGradient id="paint105_linear_2_10117" x1="1287.02" y1="103.747" x2="1287.02" y2="95.424" gradientUnits="userSpaceOnUse">
<stop stop-color="#0F1145" stop-opacity="0"/>
<stop offset="1" stop-color="white" stop-opacity="0.07"/>
</linearGradient>
<linearGradient id="paint106_linear_2_10117" x1="1355.55" y1="510.636" x2="1355.55" y2="30.3623" gradientUnits="userSpaceOnUse">
<stop stop-color="#0F1145" stop-opacity="0"/>
<stop offset="1" stop-color="white" stop-opacity="0.07"/>
</linearGradient>
<linearGradient id="paint107_linear_2_10117" x1="1355.6" y1="39.2156" x2="1355.6" y2="30.8925" gradientUnits="userSpaceOnUse">
<stop stop-color="#0F1145" stop-opacity="0"/>
<stop offset="1" stop-color="white" stop-opacity="0.07"/>
</linearGradient>
<linearGradient id="paint108_linear_2_10117" x1="1382.95" y1="530.739" x2="1382.95" y2="9.88117" gradientUnits="userSpaceOnUse">
<stop stop-color="#0F1145" stop-opacity="0"/>
<stop offset="1" stop-color="white" stop-opacity="0.07"/>
</linearGradient>
<linearGradient id="paint109_linear_2_10117" x1="1382.96" y1="19.1155" x2="1382.96" y2="10.7924" gradientUnits="userSpaceOnUse">
<stop stop-color="#0F1145" stop-opacity="0"/>
<stop offset="1" stop-color="white" stop-opacity="0.07"/>
</linearGradient>
<linearGradient id="paint110_linear_2_10117" x1="1372.52" y1="471.123" x2="1372.52" y2="70.5821" gradientUnits="userSpaceOnUse">
<stop stop-color="#0F1145" stop-opacity="0"/>
<stop offset="1" stop-color="white" stop-opacity="0.07"/>
</linearGradient>
<linearGradient id="paint111_linear_2_10117" x1="1372.56" y1="78.6863" x2="1372.56" y2="70.3632" gradientUnits="userSpaceOnUse">
<stop stop-color="#0F1145" stop-opacity="0"/>
<stop offset="1" stop-color="white" stop-opacity="0.07"/>
</linearGradient>
<linearGradient id="paint112_linear_2_10117" x1="1380.65" y1="459.046" x2="1380.65" y2="82.9218" gradientUnits="userSpaceOnUse">
<stop stop-color="#0F1145" stop-opacity="0"/>
<stop offset="1" stop-color="white" stop-opacity="0.07"/>
</linearGradient>
<linearGradient id="paint113_linear_2_10117" x1="1380.66" y1="90.7967" x2="1380.66" y2="82.4736" gradientUnits="userSpaceOnUse">
<stop stop-color="#0F1145" stop-opacity="0"/>
<stop offset="1" stop-color="white" stop-opacity="0.07"/>
</linearGradient>
</defs>
</svg>
