<svg width="17" height="18" viewBox="0 0 17 18" fill="none" xmlns="http://www.w3.org/2000/svg">
<path d="M8.5 0.765625C3.95117 0.765625 0.265625 4.45117 0.265625 9C0.265625 13.5488 3.95117 17.2344 8.5 17.2344C13.0488 17.2344 16.7344 13.5488 16.7344 9C16.7344 4.45117 13.0488 0.765625 8.5 0.765625ZM12.5441 6.40684L11.1928 12.7752C11.0932 13.2268 10.8242 13.3363 10.449 13.1238L8.39043 11.6064L7.39766 12.5627C7.28809 12.6723 7.19512 12.7652 6.98262 12.7652L7.12871 10.6701L10.9438 7.22363C11.1098 7.07754 10.9072 6.99453 10.6881 7.14062L5.97324 10.109L3.94121 9.4748C3.49961 9.33535 3.48965 9.0332 4.03418 8.8207L11.973 5.75937C12.3416 5.62656 12.6637 5.84902 12.5441 6.40684Z" fill="white"/>
</svg>
