<svg width="1440" height="572" viewBox="0 0 1440 572" fill="none" xmlns="http://www.w3.org/2000/svg">
<g opacity="0.1" clip-path="url(#clip0_2_9712)">
<path d="M156.178 338.139C156.178 335.914 157.982 334.11 160.207 334.11C162.431 334.11 164.235 335.914 164.235 338.139C164.235 340.363 162.431 342.167 160.207 342.167C158.007 342.167 156.178 340.363 156.178 338.139Z" fill="url(#paint0_linear_2_9712)"/>
<path d="M160.899 246.82H159.564V335.791H160.899V246.82Z" fill="url(#paint1_linear_2_9712)"/>
<path d="M23.5127 133.901C23.5127 131.677 25.3168 129.873 27.5411 129.873C29.7654 129.873 31.5695 131.677 31.5695 133.901C31.5695 136.125 29.7654 137.929 27.5411 137.929C25.3168 137.929 23.5127 136.125 23.5127 133.901Z" fill="url(#paint2_linear_2_9712)"/>
<path d="M28.233 42.5822H26.8984V131.553H28.233V42.5822Z" fill="url(#paint3_linear_2_9712)"/>
<path d="M63.7471 154.34C63.7471 152.115 65.5512 150.311 67.7755 150.311C69.9998 150.311 71.8039 152.115 71.8039 154.34C71.8039 156.564 69.9998 158.368 67.7755 158.368C65.5759 158.393 63.7471 156.589 63.7471 154.34Z" fill="url(#paint4_linear_2_9712)"/>
<path d="M68.4674 63.0455H67.1328V152.041H68.4674V63.0455Z" fill="url(#paint5_linear_2_9712)"/>
<path d="M129.388 384.082C129.388 381.858 131.192 380.054 133.416 380.054C135.641 380.054 137.445 381.858 137.445 384.082C137.445 386.307 135.641 388.111 133.416 388.111C131.192 388.111 129.388 386.307 129.388 384.082Z" fill="url(#paint6_linear_2_9712)"/>
<path d="M134.108 292.764H132.774V381.735H134.108V292.764Z" fill="url(#paint7_linear_2_9712)"/>
<path d="M191.742 124.954C191.742 122.73 193.546 120.926 195.77 120.926C197.994 120.926 199.799 122.73 199.799 124.954C199.799 127.179 197.994 128.983 195.77 128.983C193.546 128.983 191.742 127.179 191.742 124.954Z" fill="url(#paint8_linear_2_9712)"/>
<path d="M196.437 33.6604H195.103V122.631H196.437V33.6604Z" fill="url(#paint9_linear_2_9712)"/>
<path d="M80.5527 121C80.5527 118.776 82.3569 116.972 84.5811 116.972C86.8054 116.972 88.6096 118.776 88.6096 121C88.6096 123.224 86.8054 125.029 84.5811 125.029C82.3569 125.029 80.5527 123.224 80.5527 121Z" fill="url(#paint10_linear_2_9712)"/>
<path d="M85.2733 74.1917H83.9387V118.677H85.2733V74.1917Z" fill="url(#paint11_linear_2_9712)"/>
<path d="M232.495 344.663C232.495 342.439 234.3 340.635 236.524 340.635C238.748 340.635 240.552 342.439 240.552 344.663C240.552 346.888 238.748 348.692 236.524 348.692C234.324 348.692 232.495 346.888 232.495 344.663Z" fill="url(#paint12_linear_2_9712)"/>
<path d="M237.216 297.83H235.881V342.316H237.216V297.83Z" fill="url(#paint13_linear_2_9712)"/>
<path d="M0.726074 108.94C0.726074 106.715 2.5302 104.911 4.75447 104.911C6.97875 104.911 8.78288 106.715 8.78288 108.94C8.78288 111.164 6.97875 112.968 4.75447 112.968C2.5302 112.968 0.726074 111.164 0.726074 108.94Z" fill="url(#paint14_linear_2_9712)"/>
<path d="M5.44638 62.1063H4.11182V106.592H5.44638V62.1063Z" fill="url(#paint15_linear_2_9712)"/>
<path d="M130.97 47.3026C130.97 45.0783 132.774 43.2742 134.998 43.2742C137.222 43.2742 139.027 45.0783 139.027 47.3026C139.027 49.5269 137.222 51.331 134.998 51.331C132.799 51.3557 130.97 49.5269 130.97 47.3026Z" fill="url(#paint16_linear_2_9712)"/>
<path d="M135.69 0.494019H134.355V44.9795H135.69V0.494019Z" fill="url(#paint17_linear_2_9712)"/>
<path d="M74.918 372.862C74.918 370.638 76.7221 368.834 78.9464 368.834C81.1706 368.834 82.9748 370.638 82.9748 372.862C82.9748 375.086 81.1706 376.89 78.9464 376.89C76.7221 376.89 74.918 375.086 74.918 372.862Z" fill="url(#paint18_linear_2_9712)"/>
<path d="M79.6136 281.543H78.2791V370.539H79.6136V281.543Z" fill="url(#paint19_linear_2_9712)"/>
<path d="M190.852 325.634C190.852 323.409 192.656 321.605 194.88 321.605C197.105 321.605 198.909 323.409 198.909 325.634C198.909 327.858 197.105 329.662 194.88 329.662C192.656 329.687 190.852 327.883 190.852 325.634Z" fill="url(#paint20_linear_2_9712)"/>
<path d="M195.548 234.339H194.213V323.335H195.548V234.339Z" fill="url(#paint21_linear_2_9712)"/>
<path d="M-3.30225 549.815C-3.30225 547.591 -1.49811 545.787 0.726164 545.787C2.95044 545.787 4.75456 547.591 4.75456 549.815C4.75456 552.04 2.95044 553.844 0.726164 553.844C-1.49811 553.869 -3.30225 552.04 -3.30225 549.815Z" fill="url(#paint22_linear_2_9712)"/>
<path d="M1.3934 240.468H0.0588379V547.492H1.3934V240.468Z" fill="url(#paint23_linear_2_9712)"/>
<path d="M167.522 374.024C167.522 371.8 169.326 369.995 171.55 369.995C173.775 369.995 175.579 371.8 175.579 374.024C175.579 376.248 173.775 378.052 171.55 378.052C169.326 378.052 167.522 376.248 167.522 374.024Z" fill="url(#paint24_linear_2_9712)"/>
<path d="M172.218 64.6766H170.883V371.701H172.218V64.6766Z" fill="url(#paint25_linear_2_9712)"/>
<path d="M59.002 464.008C59.002 461.784 60.8061 459.98 63.0304 459.98C65.2546 459.98 67.0588 461.784 67.0588 464.008C67.0588 466.232 65.2546 468.037 63.0304 468.037C60.8061 468.061 59.002 466.232 59.002 464.008Z" fill="url(#paint26_linear_2_9712)"/>
<path d="M63.7225 154.686H62.3879V461.71H63.7225V154.686Z" fill="url(#paint27_linear_2_9712)"/>
<path d="M144.291 225.862C144.291 223.638 146.095 221.834 148.319 221.834C150.543 221.834 152.347 223.638 152.347 225.862C152.347 228.087 150.543 229.891 148.319 229.891C146.095 229.916 144.291 228.111 144.291 225.862Z" fill="url(#paint28_linear_2_9712)"/>
<path d="M149.011 53.6788H147.676V223.539H149.011V53.6788Z" fill="url(#paint29_linear_2_9712)"/>
<path d="M1287.77 380.722C1287.77 378.497 1289.58 376.693 1291.8 376.693C1294.03 376.693 1295.83 378.497 1295.83 380.722C1295.83 382.946 1294.03 384.75 1291.8 384.75C1289.58 384.775 1287.77 382.946 1287.77 380.722Z" fill="url(#paint30_linear_2_9712)"/>
<path d="M1292.47 316.366H1291.14V378.423H1292.47V316.366Z" fill="url(#paint31_linear_2_9712)"/>
<path d="M1183.85 290.614C1183.85 288.389 1185.66 286.585 1187.88 286.585C1190.1 286.585 1191.91 288.389 1191.91 290.614C1191.91 292.838 1190.1 294.642 1187.88 294.642C1185.66 294.642 1183.85 292.838 1183.85 290.614Z" fill="url(#paint32_linear_2_9712)"/>
<path d="M1188.55 127.673H1187.21V288.291H1188.55V127.673Z" fill="url(#paint33_linear_2_9712)"/>
<path d="M1137.91 151.745C1137.91 149.521 1139.71 147.717 1141.94 147.717C1144.16 147.717 1145.96 149.521 1145.96 151.745C1145.96 153.969 1144.16 155.773 1141.94 155.773C1139.74 155.798 1137.91 153.994 1137.91 151.745Z" fill="url(#paint34_linear_2_9712)"/>
<path d="M1142.63 60.4508H1141.29V149.446H1142.63V60.4508Z" fill="url(#paint35_linear_2_9712)"/>
<path d="M1262.64 221.884C1262.64 219.659 1264.44 217.855 1266.67 217.855C1268.89 217.855 1270.7 219.659 1270.7 221.884C1270.7 224.108 1268.89 225.912 1266.67 225.912C1264.44 225.937 1262.64 224.108 1262.64 221.884Z" fill="url(#paint36_linear_2_9712)"/>
<path d="M1267.34 130.59H1266V219.585H1267.34V130.59Z" fill="url(#paint37_linear_2_9712)"/>
<path d="M1425.46 191.806C1425.46 189.582 1427.26 187.778 1429.49 187.778C1431.71 187.778 1433.51 189.582 1433.51 191.806C1433.51 194.031 1431.71 195.835 1429.49 195.835C1427.26 195.86 1425.46 194.055 1425.46 191.806Z" fill="url(#paint38_linear_2_9712)"/>
<path d="M1430.18 100.512H1428.84V189.483H1430.18V100.512Z" fill="url(#paint39_linear_2_9712)"/>
<path d="M1390.17 228.902C1390.17 226.678 1391.97 224.874 1394.19 224.874C1396.42 224.874 1398.22 226.678 1398.22 228.902C1398.22 231.127 1396.42 232.931 1394.19 232.931C1391.97 232.931 1390.17 231.127 1390.17 228.902Z" fill="url(#paint40_linear_2_9712)"/>
<path d="M1394.89 137.608H1393.55V226.604H1394.89V137.608Z" fill="url(#paint41_linear_2_9712)"/>
<path d="M1250.8 296.273C1250.8 294.049 1252.61 292.245 1254.83 292.245C1257.05 292.245 1258.86 294.049 1258.86 296.273C1258.86 298.498 1257.05 300.302 1254.83 300.302C1252.61 300.326 1250.8 298.498 1250.8 296.273Z" fill="url(#paint42_linear_2_9712)"/>
<path d="M1255.52 127.055H1254.19V293.95H1255.52V127.055Z" fill="url(#paint43_linear_2_9712)"/>
<path d="M1274.26 265.677C1274.26 263.453 1276.06 261.649 1278.28 261.649C1280.51 261.649 1282.31 263.453 1282.31 265.677C1282.31 267.901 1280.51 269.706 1278.28 269.706C1276.06 269.706 1274.26 267.901 1274.26 265.677Z" fill="url(#paint44_linear_2_9712)"/>
<path d="M1278.98 130.12H1277.64V263.354H1278.98V130.12Z" fill="url(#paint45_linear_2_9712)"/>
<path d="M1216.77 442.655C1216.77 440.431 1218.58 438.627 1220.8 438.627C1223.02 438.627 1224.83 440.431 1224.83 442.655C1224.83 444.879 1223.02 446.684 1220.8 446.684C1218.6 446.684 1216.77 444.879 1216.77 442.655Z" fill="url(#paint46_linear_2_9712)"/>
<path d="M1221.49 133.308H1220.16V440.332H1221.49V133.308Z" fill="url(#paint47_linear_2_9712)"/>
<path d="M1334.29 309.347C1334.29 307.123 1336.09 305.319 1338.32 305.319C1340.54 305.319 1342.34 307.123 1342.34 309.347C1342.34 311.571 1340.54 313.375 1338.32 313.375C1336.09 313.375 1334.29 311.571 1334.29 309.347Z" fill="url(#paint48_linear_2_9712)"/>
<path d="M1339.01 0H1337.67V307.024H1339.01V0Z" fill="url(#paint49_linear_2_9712)"/>
<path d="M1395.45 326.523C1395.45 324.299 1397.26 322.495 1399.48 322.495C1401.71 322.495 1403.51 324.299 1403.51 326.523C1403.51 328.748 1401.71 330.552 1399.48 330.552C1397.26 330.552 1395.45 328.748 1395.45 326.523Z" fill="url(#paint50_linear_2_9712)"/>
<path d="M1400.15 17.1764H1398.82V324.2H1400.15V17.1764Z" fill="url(#paint51_linear_2_9712)"/>
<path d="M1148.61 510.248C1148.61 508.024 1150.41 506.22 1152.64 506.22C1154.86 506.22 1156.67 508.024 1156.67 510.248C1156.67 512.473 1154.86 514.277 1152.64 514.277C1150.44 514.277 1148.61 512.473 1148.61 510.248Z" fill="url(#paint52_linear_2_9712)"/>
<path d="M1153.33 200.901H1152V507.925H1153.33V200.901Z" fill="url(#paint53_linear_2_9712)"/>
<path d="M1406.43 388.63C1406.43 386.406 1408.23 384.602 1410.46 384.602C1412.68 384.602 1414.48 386.406 1414.48 388.63C1414.48 390.854 1412.68 392.659 1410.46 392.659C1408.23 392.659 1406.43 390.854 1406.43 388.63Z" fill="url(#paint54_linear_2_9712)"/>
<path d="M1411.15 79.2831H1409.81V386.307H1411.15V79.2831Z" fill="url(#paint55_linear_2_9712)"/>
<path d="M1095.89 428.198C1095.89 425.973 1097.7 424.169 1099.92 424.169C1102.15 424.169 1103.95 425.973 1103.95 428.198C1103.95 430.422 1102.15 432.226 1099.92 432.226C1097.7 432.251 1095.89 430.447 1095.89 428.198Z" fill="url(#paint56_linear_2_9712)"/>
<path d="M1100.59 256.014H1099.26V425.874H1100.59V256.014Z" fill="url(#paint57_linear_2_9712)"/>
<path d="M1165.34 243.088C1165.34 240.864 1167.14 239.06 1169.37 239.06C1171.59 239.06 1173.4 240.864 1173.4 243.088C1173.4 245.313 1171.59 247.117 1169.37 247.117C1167.14 247.142 1165.34 245.337 1165.34 243.088Z" fill="url(#paint58_linear_2_9712)"/>
<path d="M1170.06 117.763H1168.73V240.79H1170.06V117.763Z" fill="url(#paint59_linear_2_9712)"/>
<path d="M1384.98 460.202C1384.98 457.978 1386.78 456.174 1389 456.174C1391.23 456.174 1393.03 457.978 1393.03 460.202C1393.03 462.427 1391.23 464.231 1389 464.231C1386.78 464.231 1384.98 462.427 1384.98 460.202Z" fill="url(#paint60_linear_2_9712)"/>
<path d="M1389.7 287.994H1388.36V457.855H1389.7V287.994Z" fill="url(#paint61_linear_2_9712)"/>
</g>
<defs>
<linearGradient id="paint0_linear_2_9712" x1="160.224" y1="315.457" x2="160.224" y2="245.437" gradientUnits="userSpaceOnUse">
<stop stop-color="#A4FFFF"/>
<stop offset="1" stop-color="#A4FFFF" stop-opacity="0"/>
</linearGradient>
<linearGradient id="paint1_linear_2_9712" x1="160.227" y1="315.456" x2="160.227" y2="245.438" gradientUnits="userSpaceOnUse">
<stop stop-color="#A4FFFF"/>
<stop offset="1" stop-color="#A4FFFF" stop-opacity="0"/>
</linearGradient>
<linearGradient id="paint2_linear_2_9712" x1="27.5572" y1="111.226" x2="27.5572" y2="41.2065" gradientUnits="userSpaceOnUse">
<stop stop-color="#A4FFFF"/>
<stop offset="1" stop-color="#A4FFFF" stop-opacity="0"/>
</linearGradient>
<linearGradient id="paint3_linear_2_9712" x1="27.5568" y1="111.225" x2="27.5568" y2="41.2073" gradientUnits="userSpaceOnUse">
<stop stop-color="#A4FFFF"/>
<stop offset="1" stop-color="#A4FFFF" stop-opacity="0"/>
</linearGradient>
<linearGradient id="paint4_linear_2_9712" x1="67.7945" y1="131.675" x2="67.7945" y2="61.6535" gradientUnits="userSpaceOnUse">
<stop stop-color="#A4FFFF"/>
<stop offset="1" stop-color="#A4FFFF" stop-opacity="0"/>
</linearGradient>
<linearGradient id="paint5_linear_2_9712" x1="67.7944" y1="131.676" x2="67.7944" y2="61.6568" gradientUnits="userSpaceOnUse">
<stop stop-color="#A4FFFF"/>
<stop offset="1" stop-color="#A4FFFF" stop-opacity="0"/>
</linearGradient>
<linearGradient id="paint6_linear_2_9712" x1="133.431" y1="361.411" x2="133.431" y2="291.41" gradientUnits="userSpaceOnUse">
<stop stop-color="#A4FFFF"/>
<stop offset="1" stop-color="#A4FFFF" stop-opacity="0"/>
</linearGradient>
<linearGradient id="paint7_linear_2_9712" x1="133.432" y1="361.404" x2="133.432" y2="291.386" gradientUnits="userSpaceOnUse">
<stop stop-color="#A4FFFF"/>
<stop offset="1" stop-color="#A4FFFF" stop-opacity="0"/>
</linearGradient>
<linearGradient id="paint8_linear_2_9712" x1="195.771" y1="102.282" x2="195.771" y2="32.2625" gradientUnits="userSpaceOnUse">
<stop stop-color="#A4FFFF"/>
<stop offset="1" stop-color="#A4FFFF" stop-opacity="0"/>
</linearGradient>
<linearGradient id="paint9_linear_2_9712" x1="195.77" y1="102.281" x2="195.77" y2="32.2631" gradientUnits="userSpaceOnUse">
<stop stop-color="#A4FFFF"/>
<stop offset="1" stop-color="#A4FFFF" stop-opacity="0"/>
</linearGradient>
<linearGradient id="paint10_linear_2_9712" x1="84.5925" y1="98.3314" x2="84.5925" y2="28.3118" gradientUnits="userSpaceOnUse">
<stop stop-color="#A4FFFF"/>
<stop offset="1" stop-color="#A4FFFF" stop-opacity="0"/>
</linearGradient>
<linearGradient id="paint11_linear_2_9712" x1="84.5939" y1="108.508" x2="84.5939" y2="73.4979" gradientUnits="userSpaceOnUse">
<stop stop-color="#A4FFFF"/>
<stop offset="1" stop-color="#A4FFFF" stop-opacity="0"/>
</linearGradient>
<linearGradient id="paint12_linear_2_9712" x1="236.542" y1="321.981" x2="236.542" y2="251.961" gradientUnits="userSpaceOnUse">
<stop stop-color="#A4FFFF"/>
<stop offset="1" stop-color="#A4FFFF" stop-opacity="0"/>
</linearGradient>
<linearGradient id="paint13_linear_2_9712" x1="236.542" y1="332.157" x2="236.542" y2="297.148" gradientUnits="userSpaceOnUse">
<stop stop-color="#A4FFFF"/>
<stop offset="1" stop-color="#A4FFFF" stop-opacity="0"/>
</linearGradient>
<linearGradient id="paint14_linear_2_9712" x1="4.77104" y1="86.2508" x2="4.77104" y2="16.2096" gradientUnits="userSpaceOnUse">
<stop stop-color="#A4FFFF"/>
<stop offset="1" stop-color="#A4FFFF" stop-opacity="0"/>
</linearGradient>
<linearGradient id="paint15_linear_2_9712" x1="4.77094" y1="96.435" x2="4.77094" y2="61.4254" gradientUnits="userSpaceOnUse">
<stop stop-color="#A4FFFF"/>
<stop offset="1" stop-color="#A4FFFF" stop-opacity="0"/>
</linearGradient>
<linearGradient id="paint16_linear_2_9712" x1="135.018" y1="24.6352" x2="135.018" y2="-45.3847" gradientUnits="userSpaceOnUse">
<stop stop-color="#A4FFFF"/>
<stop offset="1" stop-color="#A4FFFF" stop-opacity="0"/>
</linearGradient>
<linearGradient id="paint17_linear_2_9712" x1="135.02" y1="34.8104" x2="135.02" y2="-0.195754" gradientUnits="userSpaceOnUse">
<stop stop-color="#A4FFFF"/>
<stop offset="1" stop-color="#A4FFFF" stop-opacity="0"/>
</linearGradient>
<linearGradient id="paint18_linear_2_9712" x1="78.957" y1="350.188" x2="78.957" y2="280.168" gradientUnits="userSpaceOnUse">
<stop stop-color="#A4FFFF"/>
<stop offset="1" stop-color="#A4FFFF" stop-opacity="0"/>
</linearGradient>
<linearGradient id="paint19_linear_2_9712" x1="78.9557" y1="350.188" x2="78.9557" y2="280.168" gradientUnits="userSpaceOnUse">
<stop stop-color="#A4FFFF"/>
<stop offset="1" stop-color="#A4FFFF" stop-opacity="0"/>
</linearGradient>
<linearGradient id="paint20_linear_2_9712" x1="194.887" y1="302.964" x2="194.887" y2="232.923" gradientUnits="userSpaceOnUse">
<stop stop-color="#A4FFFF"/>
<stop offset="1" stop-color="#A4FFFF" stop-opacity="0"/>
</linearGradient>
<linearGradient id="paint21_linear_2_9712" x1="194.888" y1="302.971" x2="194.888" y2="232.952" gradientUnits="userSpaceOnUse">
<stop stop-color="#A4FFFF"/>
<stop offset="1" stop-color="#A4FFFF" stop-opacity="0"/>
</linearGradient>
<linearGradient id="paint22_linear_2_9712" x1="0.734563" y1="510.33" x2="0.734563" y2="385.631" gradientUnits="userSpaceOnUse">
<stop stop-color="#A4FFFF"/>
<stop offset="1" stop-color="#A4FFFF" stop-opacity="0"/>
</linearGradient>
<linearGradient id="paint23_linear_2_9712" x1="0.735763" y1="479.128" x2="0.735763" y2="249.739" gradientUnits="userSpaceOnUse">
<stop stop-color="#A4FFFF"/>
<stop offset="1" stop-color="#A4FFFF" stop-opacity="0"/>
</linearGradient>
<linearGradient id="paint24_linear_2_9712" x1="171.548" y1="334.534" x2="171.548" y2="209.835" gradientUnits="userSpaceOnUse">
<stop stop-color="#A4FFFF"/>
<stop offset="1" stop-color="#A4FFFF" stop-opacity="0"/>
</linearGradient>
<linearGradient id="paint25_linear_2_9712" x1="171.55" y1="303.331" x2="171.55" y2="73.9432" gradientUnits="userSpaceOnUse">
<stop stop-color="#A4FFFF"/>
<stop offset="1" stop-color="#A4FFFF" stop-opacity="0"/>
</linearGradient>
<linearGradient id="paint26_linear_2_9712" x1="63.0447" y1="424.523" x2="63.0447" y2="299.825" gradientUnits="userSpaceOnUse">
<stop stop-color="#A4FFFF"/>
<stop offset="1" stop-color="#A4FFFF" stop-opacity="0"/>
</linearGradient>
<linearGradient id="paint27_linear_2_9712" x1="63.0461" y1="393.319" x2="63.0461" y2="163.932" gradientUnits="userSpaceOnUse">
<stop stop-color="#A4FFFF"/>
<stop offset="1" stop-color="#A4FFFF" stop-opacity="0"/>
</linearGradient>
<linearGradient id="paint28_linear_2_9712" x1="148.33" y1="186.369" x2="148.33" y2="61.632" gradientUnits="userSpaceOnUse">
<stop stop-color="#A4FFFF"/>
<stop offset="1" stop-color="#A4FFFF" stop-opacity="0"/>
</linearGradient>
<linearGradient id="paint29_linear_2_9712" x1="148.33" y1="185.724" x2="148.33" y2="58.8085" gradientUnits="userSpaceOnUse">
<stop stop-color="#A4FFFF"/>
<stop offset="1" stop-color="#A4FFFF" stop-opacity="0"/>
</linearGradient>
<linearGradient id="paint30_linear_2_9712" x1="1291.8" y1="358.066" x2="1291.8" y2="288.068" gradientUnits="userSpaceOnUse">
<stop stop-color="#A4FFFF"/>
<stop offset="1" stop-color="#A4FFFF" stop-opacity="0"/>
</linearGradient>
<linearGradient id="paint31_linear_2_9712" x1="1291.8" y1="364.218" x2="1291.8" y2="315.388" gradientUnits="userSpaceOnUse">
<stop stop-color="#A4FFFF"/>
<stop offset="1" stop-color="#A4FFFF" stop-opacity="0"/>
</linearGradient>
<linearGradient id="paint32_linear_2_9712" x1="1187.88" y1="267.943" x2="1187.88" y2="197.923" gradientUnits="userSpaceOnUse">
<stop stop-color="#A4FFFF"/>
<stop offset="1" stop-color="#A4FFFF" stop-opacity="0"/>
</linearGradient>
<linearGradient id="paint33_linear_2_9712" x1="1187.88" y1="251.561" x2="1187.88" y2="125.179" gradientUnits="userSpaceOnUse">
<stop stop-color="#A4FFFF"/>
<stop offset="1" stop-color="#A4FFFF" stop-opacity="0"/>
</linearGradient>
<linearGradient id="paint34_linear_2_9712" x1="1141.96" y1="129.083" x2="1141.96" y2="59.063" gradientUnits="userSpaceOnUse">
<stop stop-color="#A4FFFF"/>
<stop offset="1" stop-color="#A4FFFF" stop-opacity="0"/>
</linearGradient>
<linearGradient id="paint35_linear_2_9712" x1="1141.96" y1="129.083" x2="1141.96" y2="59.0636" gradientUnits="userSpaceOnUse">
<stop stop-color="#A4FFFF"/>
<stop offset="1" stop-color="#A4FFFF" stop-opacity="0"/>
</linearGradient>
<linearGradient id="paint36_linear_2_9712" x1="1266.67" y1="199.207" x2="1266.67" y2="129.166" gradientUnits="userSpaceOnUse">
<stop stop-color="#A4FFFF"/>
<stop offset="1" stop-color="#A4FFFF" stop-opacity="0"/>
</linearGradient>
<linearGradient id="paint37_linear_2_9712" x1="1266.67" y1="199.213" x2="1266.67" y2="129.194" gradientUnits="userSpaceOnUse">
<stop stop-color="#A4FFFF"/>
<stop offset="1" stop-color="#A4FFFF" stop-opacity="0"/>
</linearGradient>
<linearGradient id="paint38_linear_2_9712" x1="1429.5" y1="169.146" x2="1429.5" y2="99.1258" gradientUnits="userSpaceOnUse">
<stop stop-color="#A4FFFF"/>
<stop offset="1" stop-color="#A4FFFF" stop-opacity="0"/>
</linearGradient>
<linearGradient id="paint39_linear_2_9712" x1="1429.5" y1="169.144" x2="1429.5" y2="99.1262" gradientUnits="userSpaceOnUse">
<stop stop-color="#A4FFFF"/>
<stop offset="1" stop-color="#A4FFFF" stop-opacity="0"/>
</linearGradient>
<linearGradient id="paint40_linear_2_9712" x1="1394.21" y1="206.234" x2="1394.21" y2="136.214" gradientUnits="userSpaceOnUse">
<stop stop-color="#A4FFFF"/>
<stop offset="1" stop-color="#A4FFFF" stop-opacity="0"/>
</linearGradient>
<linearGradient id="paint41_linear_2_9712" x1="1394.21" y1="206.234" x2="1394.21" y2="136.215" gradientUnits="userSpaceOnUse">
<stop stop-color="#A4FFFF"/>
<stop offset="1" stop-color="#A4FFFF" stop-opacity="0"/>
</linearGradient>
<linearGradient id="paint42_linear_2_9712" x1="1254.85" y1="256.788" x2="1254.85" y2="132.089" gradientUnits="userSpaceOnUse">
<stop stop-color="#A4FFFF"/>
<stop offset="1" stop-color="#A4FFFF" stop-opacity="0"/>
</linearGradient>
<linearGradient id="paint43_linear_2_9712" x1="1254.85" y1="256.79" x2="1254.85" y2="132.092" gradientUnits="userSpaceOnUse">
<stop stop-color="#A4FFFF"/>
<stop offset="1" stop-color="#A4FFFF" stop-opacity="0"/>
</linearGradient>
<linearGradient id="paint44_linear_2_9712" x1="1278.3" y1="226.18" x2="1278.3" y2="101.481" gradientUnits="userSpaceOnUse">
<stop stop-color="#A4FFFF"/>
<stop offset="1" stop-color="#A4FFFF" stop-opacity="0"/>
</linearGradient>
<linearGradient id="paint45_linear_2_9712" x1="1278.3" y1="233.675" x2="1278.3" y2="134.127" gradientUnits="userSpaceOnUse">
<stop stop-color="#A4FFFF"/>
<stop offset="1" stop-color="#A4FFFF" stop-opacity="0"/>
</linearGradient>
<linearGradient id="paint46_linear_2_9712" x1="1220.82" y1="403.166" x2="1220.82" y2="278.467" gradientUnits="userSpaceOnUse">
<stop stop-color="#A4FFFF"/>
<stop offset="1" stop-color="#A4FFFF" stop-opacity="0"/>
</linearGradient>
<linearGradient id="paint47_linear_2_9712" x1="1220.82" y1="371.961" x2="1220.82" y2="142.573" gradientUnits="userSpaceOnUse">
<stop stop-color="#A4FFFF"/>
<stop offset="1" stop-color="#A4FFFF" stop-opacity="0"/>
</linearGradient>
<linearGradient id="paint48_linear_2_9712" x1="1338.33" y1="269.841" x2="1338.33" y2="145.104" gradientUnits="userSpaceOnUse">
<stop stop-color="#A4FFFF"/>
<stop offset="1" stop-color="#A4FFFF" stop-opacity="0"/>
</linearGradient>
<linearGradient id="paint49_linear_2_9712" x1="1338.33" y1="238.647" x2="1338.33" y2="9.25916" gradientUnits="userSpaceOnUse">
<stop stop-color="#A4FFFF"/>
<stop offset="1" stop-color="#A4FFFF" stop-opacity="0"/>
</linearGradient>
<linearGradient id="paint50_linear_2_9712" x1="1399.49" y1="287.022" x2="1399.49" y2="162.288" gradientUnits="userSpaceOnUse">
<stop stop-color="#A4FFFF"/>
<stop offset="1" stop-color="#A4FFFF" stop-opacity="0"/>
</linearGradient>
<linearGradient id="paint51_linear_2_9712" x1="1399.49" y1="255.831" x2="1399.49" y2="26.441" gradientUnits="userSpaceOnUse">
<stop stop-color="#A4FFFF"/>
<stop offset="1" stop-color="#A4FFFF" stop-opacity="0"/>
</linearGradient>
<linearGradient id="paint52_linear_2_9712" x1="1152.66" y1="470.758" x2="1152.66" y2="346.06" gradientUnits="userSpaceOnUse">
<stop stop-color="#A4FFFF"/>
<stop offset="1" stop-color="#A4FFFF" stop-opacity="0"/>
</linearGradient>
<linearGradient id="paint53_linear_2_9712" x1="1152.66" y1="439.554" x2="1152.66" y2="210.168" gradientUnits="userSpaceOnUse">
<stop stop-color="#A4FFFF"/>
<stop offset="1" stop-color="#A4FFFF" stop-opacity="0"/>
</linearGradient>
<linearGradient id="paint54_linear_2_9712" x1="1410.47" y1="349.146" x2="1410.47" y2="224.485" gradientUnits="userSpaceOnUse">
<stop stop-color="#A4FFFF"/>
<stop offset="1" stop-color="#A4FFFF" stop-opacity="0"/>
</linearGradient>
<linearGradient id="paint55_linear_2_9712" x1="1410.47" y1="317.93" x2="1410.47" y2="88.5425" gradientUnits="userSpaceOnUse">
<stop stop-color="#A4FFFF"/>
<stop offset="1" stop-color="#A4FFFF" stop-opacity="0"/>
</linearGradient>
<linearGradient id="paint56_linear_2_9712" x1="1099.93" y1="388.719" x2="1099.93" y2="264.021" gradientUnits="userSpaceOnUse">
<stop stop-color="#A4FFFF"/>
<stop offset="1" stop-color="#A4FFFF" stop-opacity="0"/>
</linearGradient>
<linearGradient id="paint57_linear_2_9712" x1="1099.93" y1="388.058" x2="1099.93" y2="261.146" gradientUnits="userSpaceOnUse">
<stop stop-color="#A4FFFF"/>
<stop offset="1" stop-color="#A4FFFF" stop-opacity="0"/>
</linearGradient>
<linearGradient id="paint58_linear_2_9712" x1="1169.39" y1="203.61" x2="1169.39" y2="78.9116" gradientUnits="userSpaceOnUse">
<stop stop-color="#A4FFFF"/>
<stop offset="1" stop-color="#A4FFFF" stop-opacity="0"/>
</linearGradient>
<linearGradient id="paint59_linear_2_9712" x1="1169.39" y1="213.384" x2="1169.39" y2="121.474" gradientUnits="userSpaceOnUse">
<stop stop-color="#A4FFFF"/>
<stop offset="1" stop-color="#A4FFFF" stop-opacity="0"/>
</linearGradient>
<linearGradient id="paint60_linear_2_9712" x1="1389.02" y1="420.716" x2="1389.02" y2="296.055" gradientUnits="userSpaceOnUse">
<stop stop-color="#A4FFFF"/>
<stop offset="1" stop-color="#A4FFFF" stop-opacity="0"/>
</linearGradient>
<linearGradient id="paint61_linear_2_9712" x1="1389.02" y1="420.044" x2="1389.02" y2="293.129" gradientUnits="userSpaceOnUse">
<stop stop-color="#A4FFFF"/>
<stop offset="1" stop-color="#A4FFFF" stop-opacity="0"/>
</linearGradient>
<clipPath id="clip0_2_9712">
<rect width="1537" height="572" fill="white" transform="translate(-53)"/>
</clipPath>
</defs>
</svg>
